<svg display="none" xmlns="http://www.w3.org/2000/svg">
    <symbol id="mail_set2" viewBox="0 0 512 512">
    <path d="M475.074,0H36.926C16.531,0,0,16.531,0,36.926v438.148C0,495.469,16.531,512,36.926,512h438.148
	C495.469,512,512,495.469,512,475.074V36.926C512,16.531,495.469,0,475.074,0z M104.756,116.225h302.488
	c4.967,0,9.617,1.222,13.824,3.236L292.126,248.396c0,0-0.003,0.001-0.004,0.003s-0.003,0.005-0.003,0.005l-36.836,35.401
	L90.937,119.458C95.142,117.445,99.791,116.225,104.756,116.225z M72.5,363.52V148.48c0-4.965,1.221-9.613,3.233-13.819L197.071,256
	L75.73,377.335C73.719,373.132,72.5,368.481,72.5,363.52z M407.244,395.775H104.756c-4.967,0-9.618-1.223-13.824-3.235
	l121.344-121.337l35.407,35.407c2.1,2.1,4.851,3.15,7.602,3.15c2.75,0,5.501-1.051,7.602-3.15l36.841-35.405l121.337,121.338
	C416.857,394.555,412.21,395.775,407.244,395.775z M439.5,363.52c0,4.966-1.221,9.613-3.232,13.819L314.93,256.001l121.342-121.335
	c2.011,4.204,3.229,8.852,3.229,13.814V363.52z"/>
  </symbol>
 
  <symbol id="facebook_set2" viewBox="0 0 512 512">
    <g>
      <path d="M448,0H64C28.704,0,0,28.704,0,64v384c0,35.296,28.704,64,64,64h192V336h-64v-80h64v-64c0-53.024,42.976-96,96-96h64v80
        h-32c-17.664,0-32-1.664-32,16v64h80l-32,80h-48v176h96c35.296,0,64-28.704,64-64V64C512,28.704,483.296,0,448,0z"/>
    </g>
  </symbol>
  <symbol id="instagram_set2" viewBox="0 0 512 512">
    <path d="m376 91h-240c-24.8125 0-45 20.1875-45 45v240c0 24.8125 20.1875 45 45 45h240c24.8125 0 45-20.1875 45-45v-240c0-24.8125-20.1875-45-45-45zm-120 270c-57.890625 0-105-47.109375-105-105s47.109375-105 105-105 105 47.109375 105 105-47.109375 105-105 105zm105-180c-16.539062 0-30-13.460938-30-30s13.460938-30 30-30 30 13.460938 30 30-13.460938 30-30 30zm0 0" />
    <path d="m256 181c-41.351562 0-75 33.648438-75 75s33.648438 75 75 75 75-33.648438 75-75-33.648438-75-75-75zm0 0" />
    <path d="m436 0h-360c-41.351562 0-76 34.648438-76 76v360c0 41.351562 34.648438 76 76 76h360c41.351562 0 76-34.648438 76-76v-360c0-41.351562-34.648438-76-76-76zm15 376c0 41.351562-33.648438 75-75 75h-240c-41.351562 0-75-33.648438-75-75v-240c0-41.351562 33.648438-75 75-75h240c41.351562 0 75 33.648438 75 75zm0 0" />
  </symbol>
  <symbol id="whatsapp_set2" viewBox="0 0 512 512">
    <path d="m261.476562 124.46875c-70.246093 0-127.375 57.105469-127.40625 127.300781-.007812 24.054688 6.726563 47.480469 19.472657 67.75l3.027343 4.816407-12.867187 46.980468 48.199219-12.640625 4.652344 2.757813c19.550781 11.601562 41.964843 17.738281 64.816406 17.746094h.050781c70.191406 0 127.320313-57.109376 127.351563-127.308594.011718-34.019532-13.222657-66.003906-37.265626-90.066406-24.042968-24.0625-56.019531-37.324219-90.03125-37.335938zm74.90625 182.035156c-3.191406 8.9375-18.484374 17.097656-25.839843 18.199219-6.597657.984375-14.941407 1.394531-24.113281-1.515625-5.5625-1.765625-12.691407-4.121094-21.828126-8.0625-38.402343-16.578125-63.484374-55.234375-65.398437-57.789062-1.914063-2.554688-15.632813-20.753907-15.632813-39.59375 0-18.835938 9.890626-28.097657 13.398438-31.925782 3.511719-3.832031 7.660156-4.789062 10.210938-4.789062 2.550781 0 5.105468.023437 7.335937.132812 2.351563.117188 5.507813-.894531 8.613281 6.570313 3.191406 7.664062 10.847656 26.5 11.804688 28.414062.957031 1.917969 1.59375 4.152344.320312 6.707031-1.277344 2.554688-7.300781 10.25-9.570312 13.089844-1.691406 2.109375-3.914063 3.980469-1.679688 7.8125 2.230469 3.828125 9.917969 16.363282 21.296875 26.511719 14.625 13.039063 26.960938 17.078125 30.789063 18.996094 3.824218 1.914062 6.058594 1.59375 8.292968-.957031 2.230469-2.554688 9.570313-11.175782 12.121094-15.007813 2.550782-3.832031 5.105469-3.191406 8.613282-1.914063 3.511718 1.273438 22.332031 10.535157 26.160156 12.449219 3.828125 1.917969 6.378906 2.875 7.335937 4.472657.960938 1.597656.960938 9.257812-2.230469 18.199218zm0 0"/>
    <path d="m475.074219 0h-438.148438c-20.394531 0-36.925781 16.53125-36.925781 36.925781v438.148438c0 20.394531 16.53125 36.925781 36.925781 36.925781h438.148438c20.394531 0 36.925781-16.53125 36.925781-36.925781v-438.148438c0-20.394531-16.53125-36.925781-36.925781-36.925781zm-213.648438 405.050781c-.003906 0 .003907 0 0 0h-.0625c-25.644531-.011719-50.84375-6.441406-73.222656-18.644531l-81.222656 21.300781 21.738281-79.375c-13.410156-23.226562-20.464844-49.578125-20.453125-76.574219.035156-84.453124 68.769531-153.160156 153.222656-153.160156 40.984375.015625 79.457031 15.96875 108.382813 44.917969 28.929687 28.953125 44.851562 67.4375 44.835937 108.363281-.035156 84.457032-68.777343 153.171875-153.21875 153.171875zm0 0"/>
  </symbol>
  <symbol id="youtube_set2" viewBox="0 0 512 512">
    <path d="M224.113,303.961L307.387,256l-83.273-47.961V303.961z" />
    <path d="M475.074,0H36.926C16.531,0,0,16.531,0,36.926v438.148C0,495.469,16.531,512,36.926,512h438.148
	C495.469,512,512,495.469,512,475.074V36.926C512,16.531,495.469,0,475.074,0z M415.961,256.262c0,0,0,51.918-6.586,76.953
	c-3.691,13.703-14.496,24.508-28.199,28.195C356.141,368,256,368,256,368s-99.879,0-125.176-6.852
	c-13.703-3.688-24.508-14.496-28.199-28.199c-6.59-24.77-6.59-76.949-6.59-76.949s0-51.914,6.59-76.949
	c3.688-13.703,14.758-24.773,28.199-28.461C155.859,144,256,144,256,144s100.141,0,125.176,6.852
	c13.703,3.688,24.508,14.496,28.199,28.199C416.227,204.086,415.961,256.262,415.961,256.262z" />
  </symbol>
  
  <symbol id="kz" viewBox="0 0 496 496">
    <path d="M464 480H430.248L422.248 448H404.944L388.944 416H336V265.536L399.432 106.968L384.576 101.024L360.984 160H349.16C356.248 145.072 360 128.728 360 112C360 50.24 309.76 0 248 0C186.24 0 136 50.24 136 112C136 128.728 139.752 145.072 146.84 160H135.016L111.432 101.024L96.576 106.968L160 265.536V416H107.056L91.056 448H73.752L65.752 480H32V496H464V480ZM176 272H192V288H176V272ZM184.056 105C170.736 108.608 159.76 112.592 152.128 115.688C152.08 114.464 152 113.232 152 112C152 108.208 152.28 104.488 152.712 100.816C166.216 94.944 204.8 80 248 80C291.088 80 329.76 94.952 343.296 100.824C343.72 104.496 344 108.216 344 112C344 113.232 343.92 114.464 343.872 115.688C336.24 112.592 325.264 108.608 311.944 105L311.968 104.8L310.712 104.672C292.912 99.936 271.224 96 248 96C224.776 96 203.088 99.936 185.296 104.672L184.04 104.8L184.056 105ZM165.88 62.536C177.168 59.064 215.624 48 248 48C280.376 48 318.832 59.064 330.12 62.536C333.768 68.568 336.8 75 339.064 81.8C319.84 74.448 285.92 64 248 64C210.08 64 176.16 74.448 156.944 81.8C159.2 75 162.232 68.568 165.88 62.536ZM320 288H304V272H320V288ZM208 288V272H224V288H208ZM240 272H256V288H240V272ZM272 272H288V288H272V272ZM256 256V208H285.56L280.76 256H256ZM256 192V176H288.76L287.16 192H256ZM256 160V112.208C269.696 112.784 282.816 114.72 294.632 117.288L290.36 160H256ZM240 112.208V160H205.64L201.368 117.272C213.176 114.712 226.288 112.776 240 112.208ZM240 176V192H208.84L207.24 176H240ZM240 208V256H215.24L210.44 208H240ZM176 304H320V336H176V304ZM176 352H192V368H176V352ZM208 352H224V368H208V352ZM240 352H256V368H240V352ZM272 352H288V368H272V352ZM304 352H320V368H304V352ZM322.584 256H296.84L301.64 208H341.784L322.584 256ZM348.184 192H303.24L304.84 176H354.584L348.184 192ZM306.44 160L310.32 121.2C324.32 125.144 335.336 129.432 341.856 132.208C339.768 141.96 336.112 151.312 331.088 159.992H306.44V160ZM312.464 41.072C294.632 36.704 270.312 32 248 32C225.688 32 201.368 36.704 183.536 41.072C200.592 25.552 223.176 16 248 16C272.824 16 295.408 25.552 312.464 41.072ZM154.144 132.208C160.664 129.432 171.672 125.136 185.68 121.184L189.56 160H164.904C159.88 151.32 156.232 141.96 154.144 132.208ZM191.16 176L192.76 192H147.816L141.416 176H191.16ZM154.216 208H194.36L199.16 256H173.416L154.216 208ZM176 384H320V416H176V384ZM86.248 464H352V448H108.944L116.944 432H379.056L387.056 448H368V464H409.752L413.752 480H82.248L86.248 464ZM480 480H496V496H480V480ZM16 496H0V480H16V496Z"/>
  </symbol>
  
  <symbol id="en" viewBox="0 0 278 287">
    <path d="M65.231 96.924C49.959 96.924 37.539 109.344 37.539 124.616C37.539 139.888 49.958 152.308 65.231 152.308C80.503 152.308 92.923 139.888 92.923 124.616C92.924 109.344 80.503 96.924 65.231 96.924ZM65.231 143.078C55.049 143.078 46.769 134.798 46.769 124.616C46.769 114.434 55.049 106.154 65.231 106.154C75.413 106.154 83.693 114.434 83.693 124.616C83.693 134.798 75.414 143.078 65.231 143.078Z" />
    <path d="M69.846 115.385H60.615V129.231H74.462V120H69.846V115.385Z" />
    <path d="M245.232 240H249.847V230.769H245.232V212.307H249.847V203.076H245.232V189.23H236V203.076H185.231V189.23H176V203.076H125.231V189.23H116V203.076H111.385V212.307H116V230.769H111.385V240H116V276.923H102.154V170.769H111.385V78.462H100.391L88.308 54.295V32.308H86.162L69.846 7.832V0H60.615V7.832L44.3 32.308H42.154V54.296L30.071 78.462H19.078V170.77H28.309V276.924H0.615005V286.155H259.077V276.924H245.231L245.232 240ZM65.231 17.552L75.071 32.307H55.396L65.231 17.552ZM51.385 41.538H79.077V50.769H51.385V41.538ZM49.622 60H80.84L90.071 78.462H69.846V69.231H60.615V78.462H40.391L49.622 60ZM51.384 276.923H37.539V244.615H51.385L51.384 276.923ZM51.384 235.384H37.539V207.692H51.385L51.384 235.384ZM37.539 198.461V170.769H51.386V198.461H37.539ZM69.846 276.923H60.615V244.615H69.846V276.923ZM69.846 235.384H60.615V207.692H69.846V235.384ZM60.615 198.462V170.77H92.923V198.462H60.615ZM92.924 276.923H79.078V244.615H92.924V276.923ZM92.923 235.385H79.078V207.693H92.924C92.924 207.693 92.924 235.385 92.923 235.385ZM83.693 152.307V161.538H46.769V152.307H37.538V161.538H28.307V87.692H37.539V96.923H46.77V87.692H83.693V96.923H92.924V87.692H102.155V161.538H92.924V152.307H83.693ZM176 276.923H125.231V267.692H176V276.923ZM176 258.462H125.231V240H176V258.462ZM176 230.77H125.231V212.308H176V230.77ZM236 276.923H185.231V267.692H236V276.923ZM236 258.462H185.231V240H236V258.462ZM236 230.77H185.231V212.308H236V230.77Z" />
    <path d="M148.309 216.923H139.078V226.154H148.309V216.923Z" />
    <path d="M166.77 216.923H157.539V226.154H166.77V216.923Z" />
    <path d="M203.694 216.923H194.463V226.154H203.694V216.923Z" />
    <path d="M222.155 216.923H212.924V226.154H222.155V216.923Z" />
    <path d="M148.309 244.615H139.078V253.846H148.309V244.615Z" />
    <path d="M166.77 244.615H157.539V253.846H166.77V244.615Z" />
    <path d="M203.694 244.615H194.463V253.846H203.694V244.615Z" />
    <path d="M222.155 244.615H212.924V253.846H222.155V244.615Z" />
    <path d="M79.077 180H69.846V189.231H79.077V180Z" />
    <path d="M277.54 276.923H268.309V286.154H277.54V276.923Z" />
  </symbol>
  
  <symbol id="gramatics" viewBox="0 0 238 238">
    <path d="M95.5207 134.298H26.9656C22.4543 134.298 18.7843 137.968 18.7843 142.479V168.622C18.7843 170.547 20.3453 172.108 22.2707 172.108C24.196 172.108 25.757 170.547 25.757 168.622V142.479C25.757 141.813 26.299 141.271 26.9656 141.271H95.5207C96.1873 141.271 96.7293 141.813 96.7293 142.479V211.034C96.7293 211.701 96.1873 212.243 95.5207 212.243H26.9656C26.299 212.243 25.757 211.701 25.757 211.034V184.892C25.757 182.966 24.196 181.405 22.2707 181.405C20.3453 181.405 18.7843 182.966 18.7843 184.892V211.034C18.7843 215.546 22.4543 219.216 26.9656 219.216H95.5207C100.032 219.216 103.702 215.546 103.702 211.034V142.479C103.702 137.968 100.032 134.298 95.5207 134.298Z" />
<path d="M234.514 172.108C236.439 172.108 238 170.547 238 168.622V137.784C238 125.504 228.01 115.514 215.729 115.514H174.135C177.917 111.521 180.244 106.136 180.244 100.216V58.045C180.244 56.1197 178.683 54.5587 176.757 54.5587C174.831 54.5587 173.271 56.1197 173.271 58.045V100.216C173.271 108.651 166.408 115.514 157.973 115.514H80.0275C71.5924 115.514 64.7295 108.651 64.7295 100.216V22.2707C64.7295 13.8356 71.5924 6.97266 80.0275 6.97266H157.972C166.408 6.97266 173.271 13.8356 173.271 22.2707V41.7755C173.271 43.7009 174.831 45.2618 176.757 45.2618C178.683 45.2618 180.243 43.7009 180.243 41.7755V22.2707C180.243 9.99042 170.253 0 157.972 0H80.0275C67.7473 0 57.7568 9.99042 57.7568 22.2707V100.216C57.7568 106.136 60.0838 111.521 63.8654 115.514H22.2693C9.98996 115.514 0 125.504 0 137.783V215.731C0 228.01 9.98996 238 22.2693 238H100.218C108.105 238 115.043 233.874 119.001 227.671C122.959 233.874 129.896 238 137.784 238H215.729C228.01 238 238 228.01 238 215.729V184.892C238 182.966 236.439 181.405 234.514 181.405C232.588 181.405 231.027 182.966 231.027 184.892V215.729C231.027 224.164 224.164 231.027 215.729 231.027H137.784C129.349 231.027 122.486 224.164 122.486 215.729V137.784C122.486 129.349 129.349 122.486 137.784 122.486H215.729C224.164 122.486 231.027 129.349 231.027 137.784V168.622C231.027 170.547 232.588 172.108 234.514 172.108ZM115.514 215.731C115.514 224.166 108.652 231.027 100.217 231.027H22.2693C13.8347 231.027 6.97266 224.165 6.97266 215.731V137.783C6.97266 129.348 13.8347 122.486 22.2693 122.486H100.218C108.652 122.486 115.514 129.348 115.514 137.783V137.784V215.729L115.514 215.731Z" />
<path d="M142.478 134.297C137.967 134.297 134.296 137.967 134.296 142.479V211.035C134.296 215.547 137.967 219.218 142.478 219.218H211.035C215.547 219.218 219.217 215.547 219.217 211.035V142.478C219.217 137.967 215.547 134.296 211.035 134.296L142.478 134.297ZM212.244 142.478V211.035C212.244 211.702 211.702 212.244 211.035 212.244H142.478C141.811 212.244 141.269 211.702 141.269 211.035V142.478C141.269 141.811 141.811 141.269 142.478 141.269H211.035C211.702 141.269 212.244 141.812 212.244 142.478Z" />
<path d="M84.7215 18.7829C80.2097 18.7829 76.5393 22.4533 76.5393 26.9651V95.5217C76.5393 100.033 80.2097 103.704 84.7215 103.704H153.278C157.79 103.704 161.46 100.033 161.46 95.5217V26.9647C161.46 22.4529 157.79 18.7825 153.278 18.7825L84.7215 18.7829ZM154.488 26.9647V95.5212C154.488 96.1882 153.945 96.7307 153.278 96.7307H84.7215C84.0544 96.7307 83.512 96.1882 83.512 95.5212V26.9647C83.512 26.2976 84.0544 25.7551 84.7215 25.7551H153.278C153.945 25.7556 154.488 26.2981 154.488 26.9647Z" />
<path d="M107.644 80.9925L110.251 74.1482H127.772L130.351 80.9823C130.878 82.3787 132.204 83.2386 133.614 83.2386C134.022 83.2386 134.438 83.1661 134.844 83.0132C136.645 82.3331 137.555 80.3218 136.875 78.5205L123.1 42.0223C123.089 41.9907 123.076 41.9582 123.063 41.9275C122.393 40.2987 120.824 39.2468 119.063 39.2468C119.062 39.2468 119.06 39.2468 119.059 39.2468C117.297 39.2482 115.727 40.3029 115.06 41.934C115.05 41.961 115.039 41.987 115.029 42.0135L101.129 78.5103C100.443 80.3092 101.347 82.3234 103.146 83.009C104.945 83.6951 106.959 82.7915 107.644 80.9925ZM119.052 51.0408L125.141 67.175H112.907L119.052 51.0408Z" />
<path d="M185.666 174.15C187.261 172.112 188.216 169.549 188.216 166.765C188.216 160.147 182.831 154.761 176.212 154.761H165.459C163.534 154.761 161.972 156.322 161.972 158.248V195.266C161.972 196.193 162.342 197.082 162.999 197.736C163.653 198.387 164.537 198.752 165.459 198.752H165.474C165.475 198.752 175.364 198.708 178.09 198.708C185.507 198.708 191.541 192.675 191.541 185.257C191.541 180.649 189.21 176.576 185.666 174.15ZM176.213 161.734C178.987 161.734 181.244 163.991 181.244 166.766C181.244 169.541 178.987 171.797 176.213 171.797C175.424 171.797 168.946 171.807 168.946 171.807V161.734H176.213V161.734ZM178.09 191.735C176.422 191.735 172.077 191.752 168.945 191.764V178.793C170.015 178.789 178.09 178.78 178.09 178.78C181.662 178.78 184.568 181.686 184.568 185.258C184.568 188.831 181.662 191.735 178.09 191.735Z" />
<path d="M70.1524 174.15C70.1524 174.15 66.0748 171.619 60.6993 171.798C56.7286 171.803 53.4329 171.807 53.4329 171.807V161.735H69.0665C70.5591 161.733 71.8314 160.796 72.3283 159.477C72.4724 159.095 72.551 158.679 72.551 158.246C72.5496 156.322 70.9905 154.764 69.0665 154.763V154.762H49.9461C48.0212 154.762 46.4597 156.323 46.4597 158.248V195.267C46.4597 196.194 46.8298 197.083 47.4866 197.737C48.1402 198.388 49.0248 198.753 49.9461 198.753H49.9614C49.9623 198.753 59.851 198.709 62.5773 198.709C69.9939 198.709 76.028 192.675 76.028 185.258C76.0271 180.649 73.6963 176.576 70.1524 174.15ZM62.5768 191.736C60.9085 191.736 56.5641 191.752 53.4319 191.764V178.793C54.502 178.789 62.5768 178.78 62.5768 178.78C66.1487 178.78 69.0549 181.686 69.0549 185.259C69.0544 188.83 66.1482 191.736 62.5768 191.736Z" />
  </symbol>
  <symbol id="caligraf" viewBox="0 0 256 318">
    <path d="M37.3202 192.539V227.32H24.8984C11.1996 227.32 0.0546875 238.465 0.0546875 252.164V311.789C0.0546875 315.219 2.83594 318 6.26561 318H52.8475C56.2772 318 59.0585 315.219 59.0585 311.789C59.0585 308.359 56.2772 305.578 52.8475 305.578H12.4765V252.164C12.4765 245.315 18.049 239.742 24.8984 239.742H136.695C143.544 239.742 149.117 245.315 149.117 252.164V305.578H108.746C105.316 305.578 102.535 308.359 102.535 311.789C102.535 315.219 105.316 318 108.746 318H155.328C158.757 318 161.539 315.219 161.539 311.789V252.164C161.539 238.465 150.394 227.32 136.695 227.32H124.273V197.263C141.446 193.362 160.063 181.883 180.821 162.441C182.419 160.944 183.111 158.718 182.643 156.58C182.175 154.442 180.617 152.708 178.541 152.015L176.606 151.37L196.507 144.738C197.632 144.362 198.625 143.675 199.37 142.754C206.716 133.685 213.979 123.012 220.96 111.029C222.014 109.22 222.086 107.001 221.149 105.127C220.213 103.253 218.396 101.978 216.316 101.734L212.665 101.307L228.596 94.1967C229.904 93.6129 230.97 92.5949 231.614 91.3142C255.675 43.451 255.945 7.70836 255.945 6.21029C255.945 4.5265 255.26 2.91477 254.049 1.74525C252.839 0.575114 251.208 -0.0577797 249.521 0.00432959C247.737 0.0658177 205.253 1.81419 154.676 29.0466C153.839 29.4969 153.117 30.1329 152.566 30.9055L139.732 48.875C139.735 46.7391 138.635 44.7273 136.788 43.5845C134.725 42.3088 132.108 42.3523 130.085 43.6938C118.279 51.5358 108.116 59.6895 99.8779 67.927C92.2267 75.5727 85.504 83.0966 79.898 90.2901C78.8608 91.6211 78.4099 93.316 78.6484 94.9868L82.3116 120.631L74.4616 112.784C73.0393 111.362 71.0226 110.718 69.0345 111.052C67.0526 111.387 65.3545 112.662 64.4788 114.472C51.8078 140.674 54.85 163.431 73.5256 182.115C75.0317 183.619 76.5758 185.02 78.1484 186.328H43.5312C40.1015 186.328 37.3202 189.109 37.3202 192.539ZM72.2368 128.124L86.7033 142.586C88.5939 144.476 91.4826 144.943 93.8726 143.749C96.2638 142.553 97.6209 139.961 97.2432 137.315L91.323 95.8706C96.2787 89.7006 102.101 83.2674 108.66 76.713C113.573 71.8001 119.254 66.8985 125.631 62.0664L124.456 71.5585C124.107 74.3789 125.717 77.0763 128.366 78.108C131.013 79.1402 134.023 78.2434 135.675 75.9304L161.83 39.3071C197.671 20.2768 229.54 14.6571 243.065 13.0442C241.857 24.94 237.461 51.3103 221.496 83.7624L186.962 99.1748C184.409 100.314 182.932 103.02 183.353 105.785C183.776 108.549 185.994 110.69 188.771 111.015L205.287 112.949C200.544 120.509 195.707 127.403 190.842 133.532L155.004 145.475C152.467 146.319 150.757 148.693 150.756 151.366C150.755 154.04 152.466 156.413 155.002 157.259L164.472 160.418C146.353 175.914 121.36 192.199 98.8947 184.246C127.849 132.265 166.37 87.4169 213.479 50.8749C216.19 48.7725 216.682 44.8714 214.58 42.161C212.477 39.4499 208.577 38.958 205.866 41.0604C180.974 60.3689 158.039 82.3562 137.701 106.413C118.885 128.668 102.188 152.822 87.9958 178.289C86.0574 176.828 84.155 175.175 82.3072 173.329C69.5245 160.54 66.1948 145.69 72.2368 128.124ZM49.7421 198.732C51.6054 198.732 110.485 198.758 111.851 198.744V227.32H49.7421V198.732Z" />
    <path d="M80.7969 318.001C84.2271 318.001 87.0078 315.22 87.0078 311.79C87.0078 308.359 84.2271 305.579 80.7969 305.579C77.3667 305.579 74.5859 308.359 74.5859 311.79C74.5859 315.22 77.3667 318.001 80.7969 318.001Z" />
  </symbol>
    
    
    
  <symbol id="book" viewBox="0 0 512 412">
    <path d="M440.126 71.6196C420.186 70.0886 397.622 65.5586 373.061 58.1576C343.554 49.2636 314.912 50.6366 287.928 62.2356C284.122 63.8716 282.364 68.2826 283.999 72.0886C285.635 75.8926 290.041 77.6546 293.852 76.0176C317.503 65.8506 342.698 64.6726 368.733 72.5196C394.328 80.2336 417.962 84.9616 438.978 86.5756C439.173 86.5916 439.368 86.5976 439.56 86.5976C443.442 86.5976 446.728 83.6066 447.03 79.6716C447.347 75.5416 444.256 71.9366 440.126 71.6196Z" />
    <path d="M440.125 103.495C420.19 101.965 397.627 97.4358 373.061 90.0328C343.554 81.1388 314.912 82.5118 287.928 94.1108C284.122 95.7468 282.364 100.158 283.999 103.964C285.635 107.769 290.041 109.53 293.852 107.893C317.503 97.7258 342.698 96.5478 368.733 104.395C394.334 112.11 417.967 116.839 438.979 118.451C439.174 118.467 439.368 118.473 439.56 118.473C443.442 118.473 446.728 115.482 447.03 111.546C447.347 107.416 444.256 103.812 440.125 103.495Z" />
    <path d="M440.126 262.873C420.185 261.342 397.621 256.812 373.061 249.41C343.556 240.516 314.915 241.89 287.928 253.489C284.122 255.125 282.364 259.536 283.999 263.342C285.635 267.146 290.041 268.908 293.852 267.271C317.504 257.104 342.699 255.928 368.733 263.772C394.327 271.486 417.961 276.215 438.978 277.829C439.173 277.845 439.368 277.851 439.56 277.851C443.442 277.851 446.728 274.86 447.03 270.925C447.347 266.795 444.256 263.19 440.126 262.873Z" />
    <path d="M440.126 294.748C420.186 293.217 397.622 288.687 373.061 281.286C343.554 272.393 314.912 273.765 287.928 285.364C284.122 287 282.364 291.411 283.999 295.217C285.635 299.022 290.041 300.783 293.852 299.146C317.503 288.979 342.698 287.801 368.733 295.648C394.328 303.362 417.962 308.09 438.978 309.704C439.173 309.72 439.368 309.726 439.56 309.726C443.442 309.726 446.728 306.735 447.03 302.8C447.347 298.67 444.256 295.065 440.126 294.748Z" />
    <path d="M440.126 135.371C420.185 133.84 397.621 129.31 373.061 121.908C343.556 113.015 314.915 114.387 287.928 125.987C284.122 127.623 282.364 132.034 283.999 135.84C285.635 139.644 290.041 141.405 293.852 139.769C317.504 129.602 342.699 128.425 368.733 136.27C394.327 143.984 417.961 148.713 438.978 150.327C439.173 150.343 439.368 150.349 439.56 150.349C443.442 150.349 446.728 147.358 447.03 143.423C447.347 139.293 444.256 135.688 440.126 135.371Z" />
    <path d="M440.125 199.12C420.19 197.591 397.627 193.062 373.061 185.659C343.556 176.765 314.913 178.138 287.928 189.737C284.122 191.373 282.364 195.784 283.999 199.59C285.635 203.395 290.041 205.156 293.852 203.519C317.502 193.353 342.698 192.175 368.733 200.021C394.334 207.736 417.967 212.465 438.979 214.078C439.174 214.093 439.368 214.099 439.56 214.099C443.442 214.099 446.728 211.108 447.03 207.172C447.347 203.042 444.256 199.438 440.125 199.12Z" />
    <path d="M440.126 167.246C420.186 165.715 397.622 161.185 373.061 153.784C343.557 144.89 314.913 146.263 287.928 157.862C284.122 159.498 282.364 163.909 283.999 167.715C285.635 171.519 290.041 173.281 293.852 171.644C317.506 161.477 342.699 160.3 368.733 168.146C394.328 175.86 417.962 180.588 438.978 182.202C439.173 182.218 439.368 182.224 439.56 182.224C443.442 182.224 446.728 179.233 447.03 175.298C447.347 171.168 444.256 167.563 440.126 167.246Z" />
    <path d="M440.125 230.996C420.187 229.467 397.623 224.937 373.061 217.535C343.556 208.642 314.915 210.014 287.928 221.614C284.122 223.25 282.364 227.661 283.999 231.467C285.635 235.271 290.041 237.032 293.852 235.396C317.504 225.229 342.699 224.053 368.733 231.897C394.33 239.612 417.963 244.341 438.979 245.954C439.174 245.969 439.368 245.975 439.56 245.975C443.442 245.975 446.728 242.984 447.03 239.048C447.347 234.918 444.256 231.314 440.125 230.996Z" />
    <path d="M72.44 86.597C72.632 86.597 72.827 86.59 73.022 86.575C94.039 84.962 117.672 80.233 143.267 72.519C169.302 64.673 194.496 65.849 218.148 76.017C221.953 77.653 226.365 75.893 228.001 72.088C229.637 68.282 227.878 63.871 224.072 62.235C197.088 50.635 168.445 49.264 138.939 58.157C114.377 65.558 91.814 70.088 71.874 71.619C67.744 71.935 64.653 75.541 64.971 79.671C65.272 83.606 68.559 86.597 72.44 86.597Z" />
    <path d="M72.44 118.472C72.632 118.472 72.827 118.465 73.021 118.45C94.033 116.839 117.667 112.109 143.267 104.394C169.302 96.548 194.496 97.723 218.148 107.892C221.953 109.527 226.365 107.768 228.001 103.963C229.637 100.157 227.878 95.746 224.072 94.11C197.088 82.51 168.445 81.14 138.939 90.032C114.373 97.435 91.809 101.964 71.875 103.494C67.744 103.81 64.653 107.415 64.971 111.545C65.272 115.481 68.559 118.472 72.44 118.472Z" />
    <path d="M72.4404 277.851C72.6324 277.851 72.8274 277.844 73.0224 277.829C94.0404 276.216 117.673 271.486 143.267 263.772C169.303 255.924 194.496 257.104 218.148 267.271C221.953 268.906 226.365 267.147 228.001 263.342C229.637 259.536 227.878 255.125 224.072 253.489C197.088 241.889 168.445 240.518 138.939 249.41C114.378 256.812 91.8154 261.342 71.8744 262.873C67.7444 263.189 64.6534 266.795 64.9714 270.925C65.2724 274.86 68.5594 277.851 72.4404 277.851Z" />
    <path d="M72.4404 309.726C72.6324 309.726 72.8274 309.719 73.0224 309.704C94.0394 308.091 117.672 303.362 143.267 295.648C169.302 287.802 194.496 288.977 218.148 299.146C221.953 300.78 226.365 299.022 228.001 295.217C229.637 291.411 227.878 287 224.072 285.364C197.088 273.764 168.445 272.393 138.939 281.286C114.377 288.687 91.8144 293.217 71.8744 294.748C67.7444 295.064 64.6534 298.67 64.9714 302.8C65.2724 306.735 68.5594 309.726 72.4404 309.726Z" />
    <path d="M72.44 150.348C72.632 150.348 72.827 150.341 73.022 150.326C94.04 148.713 117.673 143.983 143.267 136.269C169.303 128.422 194.496 129.601 218.148 139.768C221.953 141.403 226.365 139.644 228.001 135.839C229.637 132.033 227.878 127.622 224.072 125.986C197.088 114.386 168.445 113.015 138.939 121.907C114.378 129.309 91.815 133.839 71.874 135.37C67.744 135.686 64.653 139.292 64.971 143.422C65.272 147.357 68.559 150.348 72.44 150.348Z" />
    <path d="M72.4404 214.099C72.6324 214.099 72.8274 214.092 73.0214 214.078C94.0334 212.466 117.667 207.736 143.267 200.021C169.302 192.175 194.496 193.35 218.148 203.519C221.953 205.154 226.365 203.395 228.001 199.59C229.637 195.784 227.878 191.373 224.072 189.737C197.089 178.138 168.447 176.766 138.939 185.659C114.373 193.062 91.8094 197.591 71.8754 199.12C67.7444 199.437 64.6534 203.042 64.9714 207.172C65.2724 211.108 68.5594 214.099 72.4404 214.099Z" />
    <path d="M72.4404 182.224C72.6324 182.224 72.8274 182.217 73.0224 182.202C94.0394 180.589 117.672 175.86 143.267 168.146C169.301 160.301 194.495 161.475 218.148 171.644C221.953 173.278 226.365 171.52 228.001 167.715C229.637 163.909 227.878 159.498 224.072 157.862C197.086 146.262 168.445 144.889 138.939 153.784C114.377 161.185 91.8144 165.715 71.8744 167.246C67.7444 167.562 64.6534 171.168 64.9714 175.298C65.2724 179.233 68.5594 182.224 72.4404 182.224Z" />
    <path d="M72.4404 245.975C72.6324 245.975 72.8274 245.968 73.0214 245.954C94.0374 244.342 117.67 239.612 143.267 231.897C169.303 224.049 194.496 225.229 218.148 235.396C221.953 237.032 226.365 235.272 228.001 231.467C229.637 227.661 227.878 223.25 224.072 221.614C197.088 210.014 168.445 208.642 138.939 217.535C114.377 224.937 91.8124 229.467 71.8754 230.996C67.7444 231.313 64.6534 234.918 64.9714 239.048C65.2724 242.984 68.5594 245.975 72.4404 245.975Z" />
    <path d="M493.683 43.3152H481.942V36.4722C481.942 26.8821 473.761 19.2961 464.18 20.0591C453.113 20.9441 428.88 20.9981 390.917 11.372C386.9 10.351 382.82 12.7841 381.804 16.7981C380.785 20.8141 383.215 24.8941 387.23 25.9111C425.284 35.5602 450.733 36.1872 465.379 35.0102C466.232 34.9502 466.941 35.6132 466.941 36.4722V339.13C438.531 342.195 400.578 334.062 373.06 325.77C311.599 307.247 271.866 339.07 263.5 343.604V43.8122C271.604 36.2112 304.267 9.28903 352.88 17.1111C356.967 17.7751 360.818 14.9891 361.477 10.899C362.136 6.81002 359.355 2.961 355.265 2.30199C304.22 -5.92205 268.996 19.0121 255.981 30.3672C226.142 4.489 183.46 -7.00606 138.94 6.41402C91.1565 20.8141 61.3384 21.1391 47.8213 20.0601C38.2272 19.2901 30.0602 26.9001 30.0602 36.4722V43.3152H18.3171C8.21705 43.3152 0 51.5313 0 61.6323V365.777C0 375.878 8.21805 384.094 18.3181 384.094H212.645C215.557 384.094 218.198 385.701 219.374 388.191C233.93 418.987 278.016 419.1 292.625 388.191C293.802 385.703 296.443 384.094 299.355 384.094H493.682C503.782 384.094 511.998 375.877 511.998 365.777V223.541C511.998 219.398 508.641 216.041 504.498 216.041C500.355 216.041 496.998 219.398 496.998 223.541V365.776C496.998 367.605 495.511 369.093 493.682 369.093H299.356C290.672 369.093 282.708 374.072 279.065 381.78C269.897 401.175 242.138 401.252 232.936 381.781C229.294 374.074 221.33 369.093 212.645 369.093H18.3181C16.4881 369.093 15.0001 367.605 15.0001 365.776V61.6323C15.0001 59.8033 16.4881 58.3153 18.3171 58.3153H30.0602V345.531C30.0602 348.934 32.3512 351.911 35.6412 352.781C37.0672 353.159 71.4194 361.786 143.269 340.132C178.032 329.656 211.584 336.08 238.205 354.853C248.498 362.11 262.828 362.59 273.799 354.852C289.876 343.514 323.584 326.528 368.734 340.132C440.587 361.785 474.936 353.158 476.362 352.781C479.652 351.911 481.943 348.934 481.943 345.531V58.3153H493.684C495.513 58.3153 497.001 59.8033 497.001 61.6323V188.541C497.001 192.684 500.358 196.041 504.501 196.041C508.644 196.041 512.001 192.684 512.001 188.541V61.6323C512 51.5313 503.783 43.3152 493.683 43.3152ZM45.0603 36.4722C45.0603 35.6312 45.7473 34.9492 46.6223 35.0102C61.1924 36.1822 93.1276 35.8862 143.269 20.7751C183.876 8.54103 222.67 19.6321 248.5 43.8182V343.604C244.198 341.275 202.026 306.755 138.94 325.771C134.895 326.99 130.449 328.256 126.335 329.355C126.285 329.368 126.235 329.382 126.186 329.395C102.036 335.837 69.9094 341.81 45.0593 339.134C45.0603 318.288 45.0603 42.0622 45.0603 36.4722Z" />
    </symbol>
  
  
  
  <symbol id="math" viewBox="0 0 496 496">
    <path d="M460.288 208C454.808 178.84 443.184 150.816 426.368 126.208L451.648 100.92L395.08 44.352L369.792 69.632C345.176 52.816 317.16 41.192 288 35.704V0H208V35.704C178.84 41.192 150.824 52.816 126.208 69.632L100.92 44.352L44.352 100.92L69.632 126.208C52.816 150.816 41.184 178.84 35.712 208H0V288H35.712C41.192 317.16 52.816 345.176 69.632 369.792L44.352 395.08L100.92 451.648L126.2 426.368C146.368 440.176 168.496 450.152 192 456.456V496H304V456.456C327.504 450.152 349.632 440.184 369.8 426.368L395.08 451.648L451.648 395.08L426.368 369.792C443.192 345.184 454.816 317.16 460.288 288H496V208H460.288ZM288 480H256V384H240V480H208V352H240V368H256V352H288V480ZM267.048 304L283.048 336H212.936L228.944 304H267.048ZM236.952 288L243.584 274.744C245.272 271.352 250.744 271.36 252.424 274.736L259.056 288H236.952ZM480 272H446.688L445.64 278.784C440.808 310.088 428.304 340.24 409.48 365.952L405.424 371.488L429.016 395.072L395.072 429.016L371.48 405.424L365.952 409.48C347.048 423.312 326.248 433.56 304 440.032V423.232C329.704 415.008 353.616 401.088 373.456 382.6L362.552 370.896C345.688 386.608 325.616 398.752 304.008 406.416V342.104L266.744 267.568C263.16 260.44 255.976 256 248 256C240.024 256 232.84 260.44 229.264 267.568L192 342.112V406.336C125.576 382.824 80 319.256 80 248C80 155.36 155.368 80 248 80C340.632 80 416 155.36 416 248C416 290.672 399.984 331.352 370.896 362.544L382.6 373.448C414.456 339.288 432 294.736 432 248C432 146.544 349.464 64 248 64C146.536 64 64 146.544 64 248C64 327.92 116.376 398.984 192 423.152V440.04C169.752 433.568 148.952 423.32 130.048 409.488L124.52 405.432L100.928 429.024L66.984 395.08L90.576 371.496L86.52 365.96C67.696 340.24 55.2 310.096 50.36 278.792L49.312 272H16V224H49.312L50.36 217.216C55.192 185.904 67.696 155.76 86.52 130.048L90.576 124.512L66.984 100.92L100.928 66.976L124.512 90.56L130.048 86.512C155.768 67.688 185.912 55.184 217.216 50.352L224 49.312V16H272V49.312L278.784 50.36C310.088 55.192 340.24 67.696 365.952 86.52L371.488 90.568L395.072 66.984L429.016 100.928L405.424 124.52L409.48 130.056C428.304 155.768 440.8 185.912 445.64 217.224L446.688 224H480V272Z"/>
<path d="M256 32H240V48H256V32Z"/>
<path d="M89.6008 100.921L100.914 112.235L112.228 100.921L100.914 89.6075L89.6008 100.921Z"/>
<path d="M48 240H32V256H48V240Z"/>
<path d="M100.89 406.368L112.204 395.054L100.89 383.741L89.5767 395.054L100.89 406.368Z"/>
<path d="M383.704 395.045L395.018 406.359L406.331 395.045L395.018 383.732L383.704 395.045Z"/>
<path d="M464 240H448V256H464V240Z"/>
<path d="M395.044 89.6363L383.73 100.95L395.044 112.263L406.357 100.95L395.044 89.6363Z"/>
<path d="M178.296 226.912L166.032 184H120V200H153.968L169.968 256H191.168L207.168 112H296V96H192.832L178.296 226.912Z"/>
<path d="M288 163.4C288 143.88 272.12 128 252.6 128H251.4C231.88 128 216 143.88 216 163.4V176H232V163.4C232 152.704 240.704 144 251.4 144H252.6C263.296 144 272 152.704 272 163.4C272 169.072 269.528 174.44 265.224 178.128L216 220.32V240H288V224H236.288L275.632 190.28C283.496 183.544 288 173.752 288 163.4Z"/>
<path d="M392 192H304V208H392V192Z"/>
<path d="M392 224H336V240H392V224Z"/>
<path d="M392 256H304V272H392V256Z"/>
<path d="M392 288H376V304H392V288Z"/>
<path d="M360 288H304V304H360V288Z"/>
<path d="M320 224H304V240H320V224Z"/>
  </symbol>
  
  
  <symbol id="calc" viewBox="0 0 512 512">
    <path d="M446.07 0H65.93C29.576 0 0 29.576 0 65.93V446.07C0 482.424 29.576 512 65.93 512H446.07C482.424 512 512 482.424 512 446.07V65.93C512 29.576 482.424 0 446.07 0ZM494.181 446.07C494.181 472.599 472.599 494.181 446.07 494.181H65.93C39.401 494.181 17.819 472.599 17.819 446.07V65.93C17.819 39.401 39.401 17.819 65.93 17.819H446.07C472.599 17.819 494.181 39.401 494.181 65.93V446.07Z" />
    <path d="M465.077 247.09H446.067C441.147 247.09 437.158 251.079 437.158 255.999C437.158 260.919 441.147 264.909 446.067 264.909H465.077C469.997 264.909 473.987 260.92 473.987 255.999C473.986 251.08 469.997 247.09 465.077 247.09Z" />
    <path d="M408.055 247.09H264.91V103.945C264.91 99.025 260.921 95.036 256 95.036C251.08 95.036 247.091 99.025 247.091 103.945V247.09H46.923C42.003 247.09 38.013 251.079 38.013 255.999C38.013 260.919 42.002 264.909 46.923 264.909H247.09V465.076C247.09 469.996 251.079 473.986 255.999 473.986C260.919 473.986 264.909 469.997 264.909 465.076V264.91H408.054C412.974 264.91 416.963 260.921 416.963 256C416.964 251.08 412.975 247.09 408.055 247.09Z" />
    <path d="M256 38.014C251.08 38.014 247.091 42.003 247.091 46.924V65.934C247.091 70.856 251.08 74.844 256 74.844C260.92 74.844 264.91 70.855 264.91 65.934V46.924C264.91 42.003 260.92 38.014 256 38.014Z" />
    <path d="M189.476 123.545H141.365V75.434C141.365 70.514 137.376 66.524 132.456 66.524C127.536 66.524 123.546 70.513 123.546 75.434V123.545H75.434C70.514 123.545 66.524 127.534 66.524 132.455C66.524 137.376 70.513 141.364 75.434 141.364H123.545V189.475C123.545 194.395 127.534 198.384 132.455 198.384C137.376 198.384 141.364 194.395 141.364 189.475V141.364H189.475C194.395 141.364 198.384 137.375 198.384 132.455C198.384 127.535 194.396 123.545 189.476 123.545Z" />
    <path d="M436.566 123.545H322.524C317.604 123.545 313.615 127.534 313.615 132.455C313.615 137.376 317.604 141.364 322.524 141.364H436.566C441.486 141.364 445.476 137.375 445.476 132.455C445.476 127.535 441.487 123.545 436.566 123.545Z" />
    <path d="M436.566 342.125H322.524C317.604 342.125 313.615 346.114 313.615 351.034C313.615 355.954 317.604 359.944 322.524 359.944H436.566C441.486 359.944 445.476 355.955 445.476 351.034C445.476 346.114 441.487 342.125 436.566 342.125Z" />
    <path d="M436.566 399.146H322.524C317.604 399.146 313.615 403.135 313.615 408.055C313.615 412.975 317.604 416.965 322.524 416.965H436.566C441.486 416.965 445.476 412.976 445.476 408.055C445.476 403.135 441.487 399.146 436.566 399.146Z" />
    <path d="M145.054 379.545L186.272 338.327C189.751 334.849 189.751 329.206 186.272 325.728C182.793 322.249 177.151 322.249 173.673 325.728L132.455 366.946L91.237 325.728C87.758 322.249 82.116 322.249 78.638 325.728C75.159 329.207 75.159 334.849 78.638 338.327L119.856 379.545L78.638 420.763C75.159 424.242 75.159 429.884 78.638 433.362C80.377 435.102 82.658 435.972 84.938 435.972C87.218 435.972 89.498 435.102 91.238 433.362L132.456 392.144L173.674 433.362C175.413 435.101 177.694 435.972 179.974 435.972C182.254 435.972 184.534 435.102 186.274 433.362C189.753 429.883 189.753 424.241 186.274 420.763L145.054 379.545Z" />
    </symbol>
  <symbol id="art" viewBox="0 0 512 512">
    <path d="M211.703 137.231C233.982 137.231 252.108 119.106 252.108 96.8265C252.108 74.5475 233.982 56.4215 211.703 56.4215C189.424 56.4215 171.299 74.5475 171.299 96.8265C171.299 119.106 189.424 137.231 211.703 137.231ZM211.703 71.4215C225.712 71.4215 237.108 82.8175 237.108 96.8265C237.108 110.835 225.712 122.231 211.703 122.231C197.695 122.231 186.299 110.835 186.299 96.8265C186.299 82.8185 197.695 71.4215 211.703 71.4215Z" />
    <path d="M196.839 437.002C222.335 437.002 243.078 416.259 243.078 390.763C243.078 365.267 222.335 344.524 196.839 344.524C171.343 344.524 150.6 365.267 150.6 390.763C150.6 416.259 171.343 437.002 196.839 437.002ZM196.839 359.524C214.065 359.524 228.078 373.538 228.078 390.763C228.078 407.988 214.064 422.002 196.839 422.002C179.614 422.002 165.6 407.988 165.6 390.763C165.6 373.538 179.613 359.524 196.839 359.524Z" />
    <path d="M130.617 131.632C103.586 131.632 81.5953 153.623 81.5953 180.654C81.5953 207.685 103.586 229.676 130.617 229.676C157.648 229.676 179.639 207.685 179.639 180.654C179.639 153.623 157.648 131.632 130.617 131.632ZM130.617 214.677C111.857 214.677 96.5953 199.415 96.5953 180.655C96.5953 161.895 111.858 146.633 130.617 146.633C149.376 146.633 164.639 161.895 164.639 180.655C164.639 199.415 149.377 214.677 130.617 214.677Z" />
    <path d="M116.577 348.723C143.608 348.723 165.599 326.732 165.599 299.701C165.599 272.67 143.608 250.679 116.577 250.679C89.5465 250.679 67.5555 272.67 67.5555 299.701C67.5555 326.732 89.5465 348.723 116.577 348.723ZM116.577 265.678C135.337 265.678 150.599 280.94 150.599 299.7C150.599 318.46 135.336 333.722 116.577 333.722C97.8185 333.722 82.5555 318.46 82.5555 299.7C82.5555 280.94 97.8175 265.678 116.577 265.678Z" />
    <path d="M165.439 490.45C169.508 491.199 173.419 488.494 174.164 484.419C174.909 480.344 172.208 476.438 168.133 475.694C139.386 470.445 113.67 456.184 93.7653 434.453C35.7867 371.154 9.97293 302.883 17.0399 231.533C32.9867 70.5114 202.789 -9.63594 359.386 21.6848C380.542 25.9158 388.782 43.1596 389.407 56.6395C390.026 69.9454 383.511 87.6443 363.113 93.7383C336.758 101.611 315.921 113.102 301.179 127.891C267.391 161.788 264.464 218.98 296.727 257.505C312.658 276.528 322.848 299.596 326.27 324.331C309.287 362.934 291.919 406.65 278.478 447.112C256.883 464.95 229.56 475.759 201.296 477.605C197.162 477.875 194.03 481.444 194.3 485.578C194.56 489.545 197.858 492.59 201.778 492.59C201.942 492.59 202.107 492.585 202.274 492.573C226.611 490.984 250.328 483.399 270.948 470.829C266.586 486.025 273.707 501.944 288.029 508.826C303.323 516.176 321.837 510.352 330.183 495.585C344.625 470.032 360.274 439.019 375.435 405.897C377.16 402.131 375.503 397.68 371.738 395.956C367.97 394.231 363.521 395.889 361.797 399.654C346.81 432.397 331.362 463.016 317.126 488.205C312.649 496.126 302.724 499.243 294.526 495.307C286.769 491.579 282.946 482.915 285.436 474.706C304.797 410.841 337.085 333.101 366.664 272.99L406.976 290.246C397.577 315.859 386.87 342.529 375.945 367.816C374.304 371.619 376.057 376.032 379.86 377.673C383.669 379.316 388.077 377.561 389.718 373.758C410.296 326.004 433.263 266.358 446.666 216.178C451.429 214.467 454.872 211.021 456.697 206.757L463.188 191.593C464.579 188.345 464.886 184.902 464.279 181.664C476.763 173.695 494.237 159.48 503.292 138.326C514.479 112.196 507.045 67.9275 501.618 43.8656C500.579 39.2557 497.363 35.3917 493.018 33.5317C488.672 31.6717 483.658 32.0107 479.604 34.4417C458.448 47.1266 421.286 72.3064 410.101 98.4342C401.049 119.579 402.822 142.028 405.671 156.562C402.833 158.403 400.603 161.04 399.242 164.22L392.751 179.384C390.911 183.681 390.822 188.535 392.859 193.144C372.734 226.123 352.754 266.149 336.637 301.267C330.976 281.725 321.366 263.566 308.228 247.876C295.647 232.853 289.268 215.245 289.268 195.54C289.268 153.017 315.558 123.602 367.407 108.112C391.02 101.058 405.537 80.5813 404.392 55.9455C403.445 35.5697 390.071 12.5269 362.328 6.97793C197.247 -26.0398 18.9829 59.7515 2.11199 230.055C-5.39296 305.829 21.7218 378.007 82.7044 444.585C104.837 468.748 133.446 484.609 165.439 490.45ZM404.363 203.093C414.192 207.3 421.696 210.513 431.525 214.72C426.622 232.753 419.98 253.709 412.067 276.108L373.377 259.546C384.125 238.355 394.702 219.084 404.363 203.093ZM449.398 185.69L442.908 200.853C442.383 202.077 441.012 202.465 439.983 202.024L407.71 188.21C406.664 187.762 406.021 186.496 406.539 185.286L413.03 170.121C413.536 168.942 414.874 168.486 415.957 168.951L448.227 182.765C449.267 183.211 449.907 184.501 449.398 185.69ZM423.889 104.336C427.173 96.6642 439.902 75.7824 487.051 47.4636C499.112 101.13 492.785 124.749 489.501 132.422C481.757 150.514 466.179 162.797 455.357 169.561C454.956 169.35 454.545 169.154 454.128 168.976L421.857 155.161C421.44 154.983 421.015 154.821 420.585 154.677C418.011 142.176 416.146 122.426 423.889 104.336Z" />
  </symbol>
  <symbol id="" viewBox="0 0 "></symbol>
    


</svg>
