<?xml version="1.0" encoding="utf-8"?>
<!-- Generator: Adobe Illustrator 16.0.0, SVG Export Plug-In . SVG Version: 6.00 Build 0)  -->
<!DOCTYPE svg PUBLIC "-//W3C//DTD SVG 1.1//EN" "http://www.w3.org/Graphics/SVG/1.1/DTD/svg11.dtd">
<svg version="1.1" xmlns="http://www.w3.org/2000/svg" xmlns:xlink="http://www.w3.org/1999/xlink" x="0px" y="0px"
	 width="466.626px" height="205.692px" viewBox="0 0 466.626 205.692" enable-background="new 0 0 466.626 205.692"
	 xml:space="preserve">
<g id="Layer_1">
	<g>
		<path fill="#EA5906" d="M37.88,11.279c3.17,4.567,6.34,9.135,9.51,13.701c0.722,1.041,5.415-0.295,4.629-1.427
			c-3.17-4.567-6.34-9.134-9.51-13.701C41.786,8.812,37.094,10.147,37.88,11.279L37.88,11.279z"/>
		<g>
			<path fill="#FFFF00" d="M40.028,47.507c2.91-5.181,17.704-25.119,41.612-21.638c23.909,3.48,53.276,24.271,48.711,56.458
				c-4.328,30.514-44.895,35.503-74.672,19.24c-10.752-5.872-17.293-15.688-19.813-23.936
				C31.652,63.842,38.223,50.721,40.028,47.507z"/>
			<path fill="#EA5906" d="M41.373,47.521c3.744-6.497,9.496-11.955,15.802-15.913c11.042-6.93,23.703-6.142,35.534-1.898
				c21.155,7.586,38.047,26.577,36.519,49.913c-1.597,24.367-25.775,32.318-46.839,29.656
				c-25.357-3.203-51.479-21.634-45.422-50.152C37.822,55.096,39.39,51.125,41.373,47.521c0.648-1.178-2.25-0.827-2.689-0.028
				c-5.135,9.328-7.095,20.166-4.267,30.526c2.951,10.812,11.619,19.698,21.27,24.855c16.532,8.835,37.764,11.747,55.447,4.738
				c18.234-7.226,24.449-26.479,19.365-44.562c-5.377-19.13-24.031-32.112-42.457-36.86c-19.149-4.935-39.502,4.194-49.36,21.303
				C38.016,48.65,40.919,48.311,41.373,47.521z"/>
		</g>
		<path fill="#EA5906" d="M51.481,48.471c-0.153,9.246,2.762,19.121,8.096,26.663c5.791,8.186,17.28,11.811,26.925,11.323
			c11.963-0.605,23.309-9.167,29.137-19.362c0.306-0.534-2.428-0.32-2.873,0.458c-5.719,10.004-16.613,18.027-28.4,17.599
			c-19.746-0.718-30.284-19.407-29.986-37.457C54.389,47.079,51.497,47.525,51.481,48.471L51.481,48.471z"/>
		<path fill="#EA5906" d="M71.896,40.672c0,0,0.201-0.029,0.553-0.079c0.35-0.043,0.849-0.083,1.45-0.107
			c1.205-0.058,2.824-0.005,4.474,0.391c0.411,0.127,0.823,0.208,1.227,0.39c0.405,0.152,0.803,0.322,1.179,0.559
			c0.382,0.193,0.723,0.49,1.043,0.767c0.334,0.249,0.561,0.644,0.805,0.937c0.227,0.312,0.348,0.676,0.451,0.976
			c0.12,0.304,0.059,0.592,0.038,0.816c-0.065,0.456-0.214,0.687-0.214,0.687c-0.266,0.411-0.815,0.528-1.226,0.263
			c-0.016-0.01-0.03-0.02-0.045-0.031l-0.268-0.198c0,0-0.204-0.151-0.366-0.364c-0.089-0.104-0.128-0.244-0.241-0.358
			c-0.107-0.115-0.108-0.292-0.228-0.44c-0.141-0.137-0.192-0.336-0.402-0.479c-0.184-0.153-0.356-0.336-0.625-0.47
			c-0.229-0.165-0.51-0.304-0.812-0.433c-0.28-0.152-0.629-0.233-0.947-0.355c-0.663-0.216-1.366-0.37-2.039-0.495
			c-0.673-0.118-1.315-0.21-1.869-0.274c-0.554-0.071-1.02-0.095-1.344-0.124c-0.322-0.023-0.506-0.037-0.506-0.037l-0.038-0.002
			c-0.425-0.031-0.744-0.4-0.714-0.825C71.262,41.011,71.544,40.722,71.896,40.672z"/>
		<path fill="#EA5906" d="M93.021,45.752c0,0,0.197-0.02,0.543-0.051c0.342-0.021,0.83-0.049,1.416-0.024
			c0.589,0.006,1.273,0.078,2.014,0.184c0.734,0.133,1.531,0.302,2.312,0.614c0.392,0.161,0.783,0.314,1.16,0.547
			c0.386,0.189,0.734,0.476,1.069,0.757c0.347,0.256,0.606,0.655,0.88,0.966c0.229,0.358,0.401,0.748,0.537,1.096
			c0.069,0.373,0.1,0.72,0.106,1.019c0.01,0.299-0.095,0.541-0.146,0.74c-0.123,0.397-0.246,0.594-0.246,0.594
			c-0.229,0.361-0.705,0.47-1.065,0.242c-0.099-0.062-0.179-0.143-0.237-0.233l-0.137-0.215c0,0-0.112-0.175-0.215-0.431
			c-0.063-0.125-0.077-0.285-0.161-0.432c-0.089-0.146-0.166-0.299-0.216-0.475c-0.114-0.148-0.187-0.321-0.283-0.508
			c-0.164-0.156-0.245-0.368-0.469-0.526c-0.197-0.173-0.403-0.351-0.672-0.504c-0.237-0.176-0.535-0.311-0.824-0.453
			c-0.286-0.147-0.616-0.247-0.916-0.384c-0.321-0.103-0.635-0.215-0.949-0.301c-0.627-0.187-1.23-0.328-1.756-0.438
			c-0.524-0.112-0.969-0.193-1.277-0.248c-0.307-0.054-0.482-0.083-0.482-0.083l-0.041-0.007c-0.397-0.068-0.664-0.446-0.597-0.845
			C92.427,46.023,92.701,45.783,93.021,45.752z"/>
		<path fill="#EA5906" d="M71.066,1.88c0,5.969,0,11.938,0,17.907c0,2.199,4.984,1.872,4.984-0.393c0-5.969,0-11.938,0-17.907
			C76.05-0.71,71.066-0.382,71.066,1.88L71.066,1.88z"/>
		<path fill="#EA5906" d="M99.689,24.581c5.051-5.212,10.102-10.423,15.15-15.636c2.065-2.131-2.595-2.625-3.905-1.271
			c-5.052,5.212-10.101,10.423-15.151,15.635C93.716,25.439,98.378,25.934,99.689,24.581L99.689,24.581z"/>
		<path fill="#EA5906" d="M131.673,27.787c-3.547,2.305-7.092,4.608-10.64,6.913c-0.521,0.339-4.638,3.364-1.604,2.758
			c3.27-0.655,6.563-2.504,9.328-4.3c3.545-2.306,7.092-4.609,10.639-6.913c0.521-0.34,4.638-3.365,1.605-2.759
			C137.731,24.141,134.436,25.991,131.673,27.787L131.673,27.787z"/>
		<path fill="#EA5906" d="M134.666,55.156c7.522-0.537,15.045-1.075,22.566-1.612c1.07-0.077-1.279-4.168-2.617-4.073
			c-7.521,0.537-15.043,1.075-22.566,1.612C130.977,51.159,133.329,55.25,134.666,55.156L134.666,55.156z"/>
		<path fill="#EA5906" d="M160.093,82.092c-4.879-1.773-9.757-3.546-14.634-5.319c-2.089-0.759-4.721-0.564-6.855-0.144
			c-0.623,0.123-3.77,1.085-1.711,1.833c4.879,1.772,9.757,3.546,14.634,5.319c2.088,0.759,4.721,0.564,6.855,0.144
			C159.005,83.802,162.151,82.84,160.093,82.092L160.093,82.092z"/>
		<path fill="#EA5906" d="M126.806,110.901c3.673,3.601,7.346,7.199,11.018,10.801c1.255,1.229,2.078,0.913,1.624-0.894
			c-0.544-2.166-1.8-4.623-3.405-6.197c-3.673-3.6-7.346-7.198-11.018-10.8c-1.255-1.229-2.078-0.913-1.624,0.894
			C123.945,106.871,125.201,109.328,126.806,110.901L126.806,110.901z"/>
		<path fill="#EA5906" d="M106.412,118.116c0.699,4.675,1.397,9.35,2.096,14.022c0.32,2.141,3.922,1.096,3.603-1.046
			c-0.699-4.675-1.397-9.35-2.097-14.023C109.693,114.927,106.091,115.973,106.412,118.116L106.412,118.116z"/>
		<path fill="#EA5906" d="M79.948,121.243c-0.43,4.028-0.86,8.06-1.29,12.088c-0.308,2.887,4.291,4.266,4.63,1.08
			c0.431-4.029,0.86-8.06,1.29-12.089C84.886,119.436,80.288,118.056,79.948,121.243L79.948,121.243z"/>
		<path fill="#EA5906" d="M55.353,113.712c-1.612,4.566-3.224,9.134-4.835,13.7c-0.65,1.843,4.286,2.18,4.82,0.666
			c1.612-4.567,3.224-9.135,4.835-13.7C60.823,112.537,55.887,112.2,55.353,113.712L55.353,113.712z"/>
		<path fill="#EA5906" d="M33.628,100.768c-2.297,2.271-4.536,4.605-6.713,6.992c-1.201,1.315-6.211,5.76-5.409,7.926
			c0.518,1.396,5.278-0.1,4.815-1.348c-0.275-0.742,1.146-2.199,1.539-2.711c1.318-1.719,2.791-3.323,4.256-4.916
			c1.929-2.096,3.914-4.145,5.938-6.146c0.832-0.821-0.732-1.083-1.229-1.061C35.687,99.556,34.449,99.956,33.628,100.768
			L33.628,100.768z"/>
		<path fill="#EA5906" d="M4.307,91.537c5.373-3.707,10.746-7.415,16.119-11.122c1.544-1.065-3.197-1.845-4.307-1.078
			C10.746,83.043,5.373,86.75,0,90.458C-1.544,91.523,3.197,92.301,4.307,91.537L4.307,91.537z"/>
		<path fill="#EA5906" d="M3.653,58.716c6.394,0,12.787,0,19.181,0c1.074,0,2.321-0.635,3.225-1.155
			c0.267-0.153,1.586-1.014,0.545-1.014c-6.394,0-12.788,0-19.181,0c-1.074,0-2.321,0.635-3.225,1.155
			C3.932,57.856,2.612,58.716,3.653,58.716L3.653,58.716z"/>
		<path fill="#EA5906" d="M10.165,34.706c6.823,1.719,13.647,3.438,20.47,5.157c1.07,0.271,1.625-0.7,1.263-1.604
			c-0.47-1.176-1.604-1.891-2.779-2.186c-6.823-1.72-13.647-3.438-20.47-5.158c-1.07-0.271-1.625,0.701-1.263,1.604
			C7.856,33.694,8.99,34.41,10.165,34.706L10.165,34.706z"/>
		<g>
			<line fill="#FFFF00" x1="43.902" y1="11.694" x2="53.895" y2="26.041"/>
			<path fill="#FFFF00" d="M42.561,12.278c3.331,4.782,6.662,9.563,9.993,14.346c0.603,0.863,3.404-0.13,2.683-1.167
				c-3.331-4.782-6.662-9.563-9.993-14.346C44.641,10.248,41.839,11.243,42.561,12.278L42.561,12.278z"/>
		</g>
		<g>
			<path fill="#FFFF00" d="M76.471,2.642c0,0,0.484,3.389,0.387,7.212c-0.097,3.824-0.777,12.229-0.777,12.229"/>
			<path fill="#FFFF00" d="M75.023,3.031c0.866,6.431,0.127,13.006-0.39,19.439c-0.033,0.413,2.828,0.096,2.897-0.776
				c0.518-6.435,1.255-13.009,0.39-19.439C77.841,1.667,74.92,2.27,75.023,3.031L75.023,3.031z"/>
		</g>
		<g>
			<line fill="#FFFF00" x1="116.917" y1="7.116" x2="100.316" y2="24.361"/>
			<path fill="#FFFF00" d="M115.707,6.694c-5.533,5.749-11.066,11.498-16.602,17.247c-1.264,1.312,1.531,1.768,2.422,0.843
				c5.534-5.749,11.066-11.498,16.602-17.247C119.392,6.223,116.597,5.769,115.707,6.694L115.707,6.694z"/>
		</g>
		<g>
			<line fill="#FFFF00" x1="142.224" y1="25.523" x2="125.46" y2="36.645"/>
			<path fill="#FFFF00" d="M140.38,24.494c-5.588,3.708-11.176,7.415-16.764,11.122c-3.281,2.177,1.655,3.409,3.688,2.062
				c5.589-3.708,11.177-7.415,16.765-11.122C147.349,24.377,142.413,23.145,140.38,24.494L140.38,24.494z"/>
		</g>
		<g>
			<line fill="#FFFF00" x1="138.011" y1="55.538" x2="158.974" y2="53.281"/>
			<path fill="#FFFF00" d="M136.117,57.241c6.987-0.753,13.975-1.506,20.962-2.258c1.926-0.208,4.33-0.718,5.822-2.057
				c1.475-1.321-1.299-1.428-2.031-1.349c-6.988,0.752-13.975,1.505-20.962,2.257c-1.926,0.208-4.331,0.718-5.822,2.057
				C132.611,57.212,135.384,57.318,136.117,57.241L136.117,57.241z"/>
		</g>
		<g>
			<line fill="#FFFF00" x1="143.08" y1="79.393" x2="159.47" y2="85.84"/>
			<path fill="#FFFF00" d="M140.738,80.663c5.464,2.148,10.927,4.298,16.39,6.447c1.506,0.593,6.801-1.706,4.686-2.539
				c-5.465-2.148-10.927-4.298-16.392-6.446C143.916,77.533,138.621,79.831,140.738,80.663L140.738,80.663z"/>
		</g>
		<g>
			<path fill="#FFFF00" d="M127.073,105.667c0.483,0,16.683,16.683,16.683,16.683"/>
			<path fill="#FFFF00" d="M125.923,106.379c0.987,0.396,2.125,1.981,2.891,2.737c1.906,1.883,3.789,3.791,5.67,5.699
				c2.652,2.691,5.295,5.396,7.928,8.105c0.729,0.749,3.48-0.332,2.688-1.148c-2.786-2.869-5.584-5.729-8.393-8.577
				c-1.846-1.872-3.697-3.739-5.568-5.587c-0.797-0.785-1.836-2.227-2.916-2.657C127.327,104.592,124.69,105.886,125.923,106.379
				L125.923,106.379z"/>
		</g>
		<g>
			<path fill="#FFFF00" d="M112.241,118.464l2.413,14.64l0.648,3.734"/>
			<path fill="#FFFF00" d="M110.792,118.853c1.01,6.126,1.998,12.257,3.062,18.375c0.12,0.689,3.036,0.023,2.897-0.776
				c-1.062-6.117-2.053-12.248-3.062-18.375C113.577,117.393,110.659,118.046,110.792,118.853L110.792,118.853z"/>
		</g>
		<g>
			<line fill="#FFFF00" x1="85.97" y1="122.59" x2="83.876" y2="136.614"/>
			<path fill="#FFFF00" d="M84.509,122.722c-0.699,4.674-1.397,9.349-2.096,14.022c-0.207,1.381,2.743,0.944,2.924-0.264
				c0.698-4.673,1.396-9.349,2.096-14.022C87.64,121.08,84.69,121.514,84.509,122.722L84.509,122.722z"/>
		</g>
		<g>
			<line fill="#FFFF00" x1="60.822" y1="114.854" x2="55.665" y2="130.167"/>
			<path fill="#FFFF00" d="M59.383,115.071c-1.719,5.104-3.438,10.208-5.158,15.312c-0.27,0.803,2.591,0.421,2.879-0.434
				c1.719-5.104,3.438-10.208,5.158-15.312C62.532,113.834,59.671,114.216,59.383,115.071L59.383,115.071z"/>
		</g>
		<g>
			<line fill="#FFFF00" x1="36.423" y1="104.131" x2="24.011" y2="118.477"/>
			<path fill="#FFFF00" d="M34.035,103.418c-4.137,4.782-8.274,9.563-12.411,14.346c-2.354,2.721,3.231,3.209,4.774,1.426
				c4.137-4.781,8.274-9.563,12.411-14.346C41.163,102.125,35.578,101.635,34.035,103.418L34.035,103.418z"/>
		</g>
		<g>
			<path fill="#FFFF00" d="M24.694,76.461c0,0-16.279,12.733-17.247,13.217"/>
			<path fill="#FFFF00" d="M22.448,76.273c-2.655,2.077-5.316,4.147-7.981,6.211c-1.936,1.5-3.875,2.995-5.824,4.479
				c-0.663,0.505-1.329,1.007-1.997,1.506c-0.209,0.155-1.694,1.157-0.901,0.7c-3.354,1.933,1.928,1.868,3.407,1.016
				c6.345-3.656,12.027-9.03,17.79-13.537C29.347,74.768,23.55,75.413,22.448,76.273L22.448,76.273z"/>
		</g>
		<g>
			<line fill="#FFFF00" x1="8.603" y1="59.246" x2="27.463" y2="60.375"/>
			<path fill="#FFFF00" d="M7.448,60.784c6.286,0.376,12.573,0.752,18.859,1.129c2.062,0.123,6.218-2.844,2.311-3.077
				c-6.286-0.376-12.573-0.752-18.859-1.129C7.697,57.583,3.54,60.549,7.448,60.784L7.448,60.784z"/>
		</g>
		<g>
			<line fill="#FFFF00" x1="12.956" y1="35.487" x2="33.265" y2="39.903"/>
			<path fill="#FFFF00" d="M11.217,37.192c6.77,1.473,13.54,2.944,20.309,4.416c2.062,0.449,6.867-2.673,3.479-3.409
				c-6.77-1.473-13.54-2.944-20.309-4.416C12.633,33.333,7.828,36.456,11.217,37.192L11.217,37.192z"/>
		</g>
	</g>
	<path fill-rule="evenodd" clip-rule="evenodd" fill="#EB5E04" d="M306.474,205.692c-0.023-9.758-0.048-19.516-0.068-29.273
		c-0.006-3.111-0.001-6.224-0.001-9.335c-0.15-0.026-0.302-0.054-0.453-0.081c-0.241,0.593-0.488,1.183-0.722,1.779
		c-1.977,5.072-3.933,10.153-5.938,15.214c-0.5,1.261,0.475,2.132,0.661,3.349c-3.325,1.458-6.697,2.937-10.28,4.507
		c-2.709-7.213-5.408-14.399-8.106-21.586c-0.137,0.022-0.273,0.046-0.409,0.068c0,10.384,0,20.769,0,31.213
		c-3.815,0.49-7.412,0.952-11.093,1.426c-0.208-22.901-0.416-45.752-0.625-68.807c4.005-0.558,7.926-1.104,11.989-1.669
		c3.798,11.544,7.6,23.098,11.4,34.651c0.117,0.008,0.233,0.017,0.351,0.024c0.426-1.069,0.886-2.127,1.274-3.21
		c3.502-9.771,7.095-19.514,10.411-29.349c0.797-2.364,1.852-3.281,4.314-3.396c2.899-0.136,5.773-0.812,8.841-1.281
		c-0.171,24.829-0.34,49.519-0.51,74.311c-1.824,0.248-3.576,0.477-5.326,0.727c-1.585,0.228-3.167,0.479-4.751,0.719
		C307.114,205.692,306.793,205.692,306.474,205.692z"/>
	<path fill-rule="evenodd" clip-rule="evenodd" fill="#006F2E" d="M54.713,133.212c0.08-0.826,0.159-1.652,0.242-2.478
		c0.066-0.661,0.136-1.321,0.209-2.026c3.736,0.653,7.318,1.261,10.892,1.916c0.878,0.161,1.461,0.562,1.396,1.697
		c-0.166,2.867-0.178,5.743-0.27,8.615c-0.06,1.865-0.295,3.738-0.197,5.594c0.159,2.989,0.328,6.019,1.588,8.804
		c2.66,5.879,8,6.863,13.492,3.897c0.035-0.019,0.061-0.052,0.096-0.071c1.964-1.101,3.336-2.212,2.903-5.042
		c-0.599-3.909-0.364-7.939-0.623-11.909c-0.232-3.554-0.649-7.095-1-10.812c4.238-0.98,8.421-1.949,12.746-2.949
		c0.082,0.416,0.215,0.822,0.235,1.234c0.112,2.27,0.207,4.541,0.289,6.812c0.17,4.701,0.367,9.402,0.481,14.104
		c0.123,5.067,0.201,10.137,0.225,15.206c0.012,2.467-0.086,4.938-0.236,7.401c-0.327,5.392-0.704,10.782-2.99,15.806
		c-1.776,3.903-4.379,7.107-8.133,9.248c-7.232,4.123-14.176,2.918-20.815-1.412c-2.933-1.912-5.254-4.533-7.354-7.33
		c-0.212-0.283-0.395-0.597-0.645-0.841c-0.479-0.468-0.468-0.806,0.066-1.265c1.474-1.267,2.897-2.594,4.343-3.896
		c0.943-0.849,1.89-1.694,2.899-2.598c0.992,1.198,1.896,2.436,2.948,3.531c2.82,2.939,6.32,4.353,10.367,3.92
		c2.926-0.312,4.893-2.168,6.138-4.8c0.916-1.935,1.562-3.939,1.672-6.094c0.109-2.144,0.226-4.287,0.321-6.432
		c0.008-0.17-0.126-0.346-0.16-0.431c-1.983,0.749-3.874,1.572-5.833,2.172c-2.06,0.631-4.181,0.562-6.341,0.341
		c-5.645-0.581-9.556-3.8-12.709-8.143c-2.525-3.478-3.933-7.48-4.784-11.661c-0.943-4.634-1.303-9.331-1.228-14.062
		c0.006-0.415-0.149-0.832-0.229-1.249C54.713,136.412,54.713,134.812,54.713,133.212z"/>
	<path fill-rule="evenodd" clip-rule="evenodd" fill="#006F2E" d="M139.633,130.605c4.084-0.45,7.994-0.88,11.913-1.312
		c0,11.706,0,23.23,0,34.754c0.084,0.042,0.168,0.084,0.252,0.127c6.186-12.776,12.371-25.553,18.574-38.365
		c3.37,2.027,6.656,4.005,9.943,5.983c0.562,0.338,0.675,0.723,0.347,1.352c-1.128,2.161-3.163,6.562-3.163,6.562
		s-0.399,58.132-0.399,60.825c-3.813,0.589-7.312,1.13-11.173,1.727c0-12.938,0-25.682,0-38.425
		c-0.17-0.03-14.98,30.409-14.98,30.409s0.006,5.913,0.006,8.999c-3.575,0.555-7.133,1.106-10.937,1.695
		C139.888,180.171,139.761,155.453,139.633,130.605z"/>
	<path fill-rule="evenodd" clip-rule="evenodd" fill="#006F2E" d="M182.05,132.984c3.831-0.545,7.758-1.104,11.808-1.681
		c0,12.263,0,24.497,0,36.731c0.136,0.04,0.271,0.08,0.407,0.12c5.453-13.238,10.905-26.477,16.448-39.933
		c3.753,1.788,7.467,3.557,11.263,5.366c-1.151,2.683-2.277,5.306-3.401,7.93c-2.935,6.855-5.868,13.712-8.803,20.567
		c-1.759,4.107-3.466,8.24-5.321,12.305c-0.479,1.051-0.086,1.505,0.633,1.974c1.968,1.284,3.958,2.537,5.932,3.812
		c3.602,2.324,7.207,4.646,10.783,7.009c0.254,0.168,0.474,0.738,0.385,1.02c-1.262,3.986-2.58,7.954-3.899,11.97
		c-6.514-4.037-12.96-8.032-19.528-12.103c-0.913,2.172-1.8,4.257-2.667,6.351c-0.735,1.775-1.474,3.55-2.159,5.345
		c-0.419,1.098-1.44,0.712-2.144,0.836c-2.521,0.44-5.076,0.692-7.621,0.993c-0.464,0.055-0.941,0.008-1.623,0.008
		C182.379,178.726,182.215,155.927,182.05,132.984z"/>
	<path fill-rule="evenodd" clip-rule="evenodd" fill="#EB5E04" d="M226.69,189.521c2.631-2.351,5.157-4.606,7.787-6.955
		c0.532,0.649,1.057,1.27,1.56,1.907c2.556,3.242,5.761,5.33,9.976,5.618c3.741,0.256,6.68-2.003,8.145-5.387
		c1.146-2.646,1.654-5.421,1.676-8.293c0.01-1.387,0.002-2.773,0.002-4.346c-0.355,0.157-0.73,0.286-1.069,0.479
		c-2.478,1.405-5.164,2.264-7.978,2.368c-4.406,0.163-8.454-0.978-11.908-3.908c-4.978-4.225-7.429-9.82-8.779-16.007
		c-0.875-4.011-1.198-8.088-1.237-12.192c-0.022-2.388-0.204-4.774-0.211-7.163c-0.005-1.707,0.159-3.415,0.261-5.359
		c1.368,0.202,2.668,0.367,3.958,0.59c2.566,0.444,5.123,0.94,7.69,1.372c0.825,0.139,1.127,0.467,1.007,1.343
		c-0.217,1.568-0.372,3.15-0.443,4.731c-0.127,2.833-0.245,5.669-0.234,8.503c0.014,3.293,0.25,6.589,1.437,9.701
		c1.04,2.731,2.778,5.094,5.751,5.628c2.979,0.536,6.034,0.237,8.643-1.713c0.407-0.305,0.859-0.548,1.274-0.844
		c0.88-0.628,1.433-1.378,0.974-2.542c-0.111-0.283-0.079-0.629-0.092-0.946c-0.164-3.979-0.229-7.965-0.512-11.936
		c-0.251-3.502-0.758-6.984-1.104-10.48c-0.027-0.276,0.273-0.8,0.506-0.855c4.094-0.967,8.2-1.879,12.306-2.798
		c0.064-0.014,0.146,0.045,0.218,0.07c0.113,1.948,0.261,3.895,0.332,5.844c0.111,3.031,0.173,6.063,0.25,9.097
		c0.161,6.38,0.379,12.761,0.456,19.142c0.045,3.668-0.031,7.346-0.249,11.007c-0.281,4.727-0.676,9.448-2.358,13.957
		c-2.075,5.563-5.792,9.63-11.188,12.007c-2.82,1.242-5.877,1.383-8.982,0.991c-3.176-0.4-6.078-1.475-8.693-3.206
		C232.175,196.511,229.233,193.291,226.69,189.521z"/>
	<path fill-rule="evenodd" clip-rule="evenodd" fill="#006F2E" d="M111.592,200.852c-3.702,0.469-7.329,0.928-11.278,1.429
		c0-2.793,0-5.538,0-8.284c-0.001-8.519,0.026-17.037-0.011-25.556c-0.049-11.187-0.139-22.373-0.247-33.559
		c-0.009-0.924,0.25-1.367,1.184-1.494c3.386-0.463,6.765-0.969,10.353-1.489c0,0.569,0,0.987,0,1.406
		c0.005,5.039,0.01,10.078,0.019,15.117c0.001,0.513-0.004,1.029,0.056,1.537c0.082,0.699,0.26,1.096,1.215,0.902
		c1.392-0.282,2.846-0.248,4.272-0.371c1.659-0.143,3.313-0.375,4.975-0.441c0.936-0.038,0.996-0.499,0.994-1.226
		c-0.017-5.278-0.009-10.558-0.008-15.837c0-1.584,0.224-1.753,1.83-1.938c2.6-0.3,5.188-0.686,7.783-1.03
		c0.662-0.088,1.327-0.156,1.994-0.234c0,22.988,0,45.881,0,68.895c-3.749,0.472-7.365,0.927-11.049,1.392
		c-0.027-0.23-0.073-0.445-0.075-0.66c-0.085-9.865-0.157-19.73-0.255-29.596c-0.016-1.63-0.167-3.259-0.207-4.889
		c-0.017-0.685-0.379-0.809-0.927-0.751c-1.492,0.154-2.986,0.3-4.474,0.484c-1.643,0.204-3.276,0.485-4.921,0.66
		c-0.977,0.104-1.224,0.584-1.222,1.507c0.02,10.918,0.006,21.836,0.001,32.754C111.592,199.973,111.592,200.366,111.592,200.852z"
		/>
	<g>
		<linearGradient id="SVGID_1_" gradientUnits="userSpaceOnUse" x1="136.3979" y1="122.1406" x2="449.0645" y2="-18.5262">
			<stop  offset="0" style="stop-color:#EB5E04"/>
			<stop  offset="0.2" style="stop-color:#F49800"/>
			<stop  offset="0.7261" style="stop-color:#63C01B"/>
			<stop  offset="1" style="stop-color:#1D7D1B"/>
		</linearGradient>
		<path fill-rule="evenodd" clip-rule="evenodd" fill="url(#SVGID_1_)" d="M180.263,118.093c-1.708-0.001-1.71-0.001-1.71-1.749
			c-0.001-12.116-0.001-24.231-0.001-36.347c0-0.41,0-0.82,0-1.55c-2.034,1.164-3.882,2.016-5.492,3.193
			c-2.3,1.682-4.664,3.383-6.579,5.463c-4.523,4.916-6.323,10.962-6.398,17.557c-0.045,4.038-0.043,8.077,0.015,12.115
			c0.016,1.08-0.341,1.431-1.378,1.332c-0.777-0.074-1.566-0.014-2.222-0.014c0,2.79,0,5.412,0,8.067c1.111,0,2.077,0,3.096,0
			c0-1.007,0.02-1.924-0.007-2.841c-0.02-0.673,0.274-0.917,0.933-0.915c5.798,0.013,11.596,0.012,17.394,0.003
			c0.834-0.001,1.128,0.406,1.102,1.193c-0.029,0.861-0.006,1.723-0.006,2.605c1.193,0,2.219,0,3.323,0c0-2.756,0-5.379,0-8.112
			C181.602,118.093,180.933,118.093,180.263,118.093z M172.445,118.117c-2.195-0.08-4.396-0.048-6.593-0.009
			c-0.836,0.015-1.24-0.197-1.233-1.133c0.034-4.396-0.223-8.809,0.077-13.185c0.356-5.205,2.335-9.88,5.875-13.806
			c0.64-0.71,1.319-1.388,2.012-2.048c0.264-0.251,0.616-0.41,1.172-0.768c0,1.394,0,2.42,0,3.446
			c0.001,8.713-0.014,17.425,0.024,26.138C173.783,117.786,173.525,118.156,172.445,118.117z"/>
		<linearGradient id="SVGID_2_" gradientUnits="userSpaceOnUse" x1="166.9121" y1="189.9658" x2="479.5771" y2="49.2997">
			<stop  offset="0" style="stop-color:#EB5E04"/>
			<stop  offset="0.2" style="stop-color:#F49800"/>
			<stop  offset="0.7261" style="stop-color:#63C01B"/>
			<stop  offset="1" style="stop-color:#1D7D1B"/>
		</linearGradient>
		<path fill-rule="evenodd" clip-rule="evenodd" fill="url(#SVGID_2_)" d="M369.353,118.093c-1.903-0.019-1.896-0.02-1.896-1.874
			c-0.006-11.634-0.016-23.268-0.023-34.902c0-0.376,0-0.752,0-1.176c-1.753,0-3.306,0-4.999,0c0,0.408-0.001,0.685,0,0.961
			c0.015,10.514,0.032,21.028,0.043,31.542c0.001,1.357-0.071,2.715-0.04,4.071c0.021,0.927-0.427,1.16-1.252,1.147
			c-1.919-0.03-3.838-0.008-5.757-0.01c-1.633-0.001-1.675-0.043-1.675-1.703c-0.001-11.555-0.001-23.109-0.001-34.663
			c0-0.462,0-0.924,0-1.299c-1.747,0-3.332,0-4.964,0c0,14.014,0,27.942,0,41.983c0.417,0,0.767,0,1.116,0
			c5.037,0,10.075,0.021,15.112-0.019c0.948-0.008,1.3,0.275,1.233,1.233c-0.07,1.016-0.016,2.04-0.016,3.055
			c1.444,0,2.708,0,4.009,0c0-2.796,0-5.53,0-8.348C369.898,118.093,369.625,118.095,369.353,118.093z"/>
		<linearGradient id="SVGID_3_" gradientUnits="userSpaceOnUse" x1="159.0273" y1="172.4414" x2="471.6934" y2="31.7748">
			<stop  offset="0" style="stop-color:#EB5E04"/>
			<stop  offset="0.2" style="stop-color:#F49800"/>
			<stop  offset="0.7261" style="stop-color:#63C01B"/>
			<stop  offset="1" style="stop-color:#1D7D1B"/>
		</linearGradient>
		<path fill-rule="evenodd" clip-rule="evenodd" fill="url(#SVGID_3_)" d="M313.488,95.185c0-4.995,0-9.991,0-14.981
			c-1.812,0-3.421,0-5.01,0c0,14.041,0,27.971,0,41.907c1.667,0,3.25,0,4.949,0c0-0.444-0.001-0.834,0-1.225
			c0.001-5.397-0.022-10.795,0.036-16.191c0.007-0.688,0.314-1.454,0.701-2.04c0.85-1.288,1.825-2.494,2.772-3.715
			c1.382-1.783,2.784-3.55,4.178-5.324c0.144,0.03,0.286,0.06,0.43,0.09c0,9.467,0,18.933,0,28.367c1.832,0,3.445,0,5.007,0
			c0-14.379,0-28.66,0-43.141c-4.312,5.576-8.494,10.983-12.677,16.391C313.746,95.278,313.617,95.231,313.488,95.185z"/>
		<linearGradient id="SVGID_4_" gradientUnits="userSpaceOnUse" x1="154.3745" y1="162.0967" x2="467.0422" y2="21.4293">
			<stop  offset="0" style="stop-color:#EB5E04"/>
			<stop  offset="0.2" style="stop-color:#F49800"/>
			<stop  offset="0.7261" style="stop-color:#63C01B"/>
			<stop  offset="1" style="stop-color:#1D7D1B"/>
		</linearGradient>
		<path fill-rule="evenodd" clip-rule="evenodd" fill="url(#SVGID_4_)" d="M285.82,95.156c-0.009-4.972-0.008-9.944-0.008-15.008
			c-1.833,0-3.365,0-4.961,0c0,14.09,0,28.024,0,41.941c1.638,0,3.178,0,4.742,0c0.029-0.474,0.076-0.87,0.075-1.265
			c-0.014-5.279-0.056-10.559-0.028-15.838c0.004-0.669,0.198-1.451,0.579-1.984c1.407-1.969,2.925-3.859,4.411-5.771
			c0.982-1.264,1.98-2.515,2.972-3.771c0.12,0.04,0.239,0.08,0.359,0.119c0,9.514,0,19.027,0,28.526c1.799,0,3.384,0,4.977,0
			c0-14.382,0-28.699,0-43.239c-4.353,5.635-8.562,11.084-12.761,16.52C285.941,95.237,285.82,95.197,285.82,95.156z"/>
		<linearGradient id="SVGID_5_" gradientUnits="userSpaceOnUse" x1="174.2212" y1="206.2119" x2="486.8871" y2="65.5453">
			<stop  offset="0" style="stop-color:#EB5E04"/>
			<stop  offset="0.2" style="stop-color:#F49800"/>
			<stop  offset="0.7261" style="stop-color:#63C01B"/>
			<stop  offset="1" style="stop-color:#1D7D1B"/>
		</linearGradient>
		<path fill-rule="evenodd" clip-rule="evenodd" fill="url(#SVGID_5_)" d="M412.095,81.401c0.004,4.797-0.015,9.594,0.03,14.39
			c0.011,1.063-0.258,1.502-1.414,1.448c-1.994-0.094-3.998-0.072-5.994-0.007c-1.001,0.033-1.311-0.296-1.302-1.299
			c0.044-4.797,0.019-9.594,0.018-14.392c0-0.43,0-0.859,0-1.351c-1.697,0-3.277,0-4.908,0c0,14.062,0,27.99,0,41.895
			c1.692,0,3.271,0,4.91,0c0-0.601,0-1.116,0.001-1.631c0.006-5.876,0.042-11.752-0.01-17.628c-0.01-1.117,0.386-1.346,1.386-1.313
			c1.957,0.064,3.92,0.082,5.875-0.005c1.117-0.05,1.456,0.323,1.447,1.421c-0.046,6.036-0.033,12.072-0.035,18.108
			c0,0.347,0.051,0.694,0.077,1.036c1.687,0,3.295,0,4.879,0c0-14.041,0-27.982,0-41.849c-1.669,0-3.277,0-4.96,0
			C412.095,80.692,412.095,81.046,412.095,81.401z"/>
		<linearGradient id="SVGID_6_" gradientUnits="userSpaceOnUse" x1="150.271" y1="152.9814" x2="462.9406" y2="12.3132">
			<stop  offset="0" style="stop-color:#EB5E04"/>
			<stop  offset="0.2" style="stop-color:#F49800"/>
			<stop  offset="0.7261" style="stop-color:#63C01B"/>
			<stop  offset="1" style="stop-color:#1D7D1B"/>
		</linearGradient>
		<path fill-rule="evenodd" clip-rule="evenodd" fill="url(#SVGID_6_)" d="M271.708,86.401c0.88-2.042,1.74-4.093,2.701-6.354
			c-1.794,0-3.39-0.021-4.982,0.024c-0.221,0.006-0.535,0.292-0.634,0.522c-1.558,3.623-3.075,7.262-4.63,10.886
			c-0.583,1.358-1.238,2.686-1.86,4.028c-0.119-0.019-0.239-0.038-0.358-0.056c0-5.063,0-10.125,0-15.273c-1.835,0-3.444,0-5.079,0
			c0,13.951,0,27.927,0,41.905c1.687,0,3.299,0,5.084,0c0-5.849,0-11.611,0-17.374c0.146-0.012,0.294-0.023,0.44-0.034
			c2.092,5.83,4.184,11.661,6.268,17.469c1.823,0,3.54,0,5.388,0c-0.855-2.434-1.693-4.802-2.521-7.173
			c-1.726-4.944-3.459-9.886-5.147-14.842c-0.147-0.434-0.13-1.031,0.048-1.452C268.158,94.572,269.946,90.492,271.708,86.401z"/>
		<linearGradient id="SVGID_7_" gradientUnits="userSpaceOnUse" x1="181.4731" y1="222.3291" x2="494.1397" y2="81.6622">
			<stop  offset="0" style="stop-color:#EB5E04"/>
			<stop  offset="0.2" style="stop-color:#F49800"/>
			<stop  offset="0.7261" style="stop-color:#63C01B"/>
			<stop  offset="1" style="stop-color:#1D7D1B"/>
		</linearGradient>
		<path fill-rule="evenodd" clip-rule="evenodd" fill="url(#SVGID_7_)" d="M465.873,92.234c-1.446-4.975-4.685-8.532-9.258-10.802
			c-2.119-1.052-4.434-1.708-6.773-2.586c0,14.676,0,28.971,0,43.263c1.673,0,3.257,0,4.952,0c0-2.089-0.051-4.12,0.037-6.146
			c0.021-0.486,0.392-1.1,0.793-1.397c0.983-0.728,2.109-1.259,3.123-1.95C465.362,108.109,468.081,99.828,465.873,92.234z
			 M460.763,102.37c-1.011,2.887-2.995,5.088-5.725,7.065c-0.11-0.604-0.234-0.966-0.234-1.328
			c-0.013-6.836-0.014-13.672,0.001-20.508c0.001-0.369,0.173-0.736,0.265-1.104c0.376,0.16,0.81,0.248,1.12,0.491
			c3.299,2.582,5.472,5.905,5.697,10.121C461.98,98.841,461.354,100.681,460.763,102.37z"/>
		<linearGradient id="SVGID_8_" gradientUnits="userSpaceOnUse" x1="138.3223" y1="126.4189" x2="450.9917" y2="-14.2492">
			<stop  offset="0" style="stop-color:#EB5E04"/>
			<stop  offset="0.2" style="stop-color:#F49800"/>
			<stop  offset="0.7261" style="stop-color:#63C01B"/>
			<stop  offset="1" style="stop-color:#1D7D1B"/>
		</linearGradient>
		<path fill-rule="evenodd" clip-rule="evenodd" fill="url(#SVGID_8_)" d="M193.858,117.869c-1.04,0.02-1.41-0.359-1.401-1.399
			c0.037-4.478,0.044-8.957-0.003-13.434c-0.012-1.146,0.365-1.562,1.524-1.524c2.187,0.071,4.376,0.02,6.612,0.02
			c0-1.461,0-2.806,0-4.318c-2.274,0-4.469-0.061-6.658,0.024c-1.198,0.047-1.51-0.4-1.48-1.531c0.069-2.597,0.01-5.198,0.024-7.796
			c0.023-4.179-0.514-3.62,3.594-3.649c1.504-0.011,3.009-0.002,4.483-0.002c0-1.46,0-2.758,0-4.063c-4.386,0-8.688,0-13.053,0
			c0,14.007,0,27.937,0,41.899c4.712,0,9.363,0,14.001,0c0-1.451,0-2.823,0-4.241C198.891,117.853,196.374,117.82,193.858,117.869z"
			/>
		<linearGradient id="SVGID_9_" gradientUnits="userSpaceOnUse" x1="170.2017" y1="197.2695" x2="482.8627" y2="56.6051">
			<stop  offset="0" style="stop-color:#EB5E04"/>
			<stop  offset="0.2" style="stop-color:#F49800"/>
			<stop  offset="0.7261" style="stop-color:#63C01B"/>
			<stop  offset="1" style="stop-color:#1D7D1B"/>
		</linearGradient>
		<path fill-rule="evenodd" clip-rule="evenodd" fill="url(#SVGID_9_)" d="M383.251,117.875c-1.088,0.031-1.461-0.261-1.444-1.403
			c0.064-4.358,0.025-8.717,0.025-13.075c0.001-1.866,0.001-1.866,1.825-1.867c2.102,0,4.204,0,6.318,0c0-1.493,0-2.811,0-4.318
			c-2.367,0-4.638-0.035-6.905,0.017c-0.924,0.021-1.271-0.25-1.255-1.22c0.051-3.198,0.018-6.397,0.018-9.596
			c-0.001-2.154,0-2.155,2.22-2.157c1.945-0.001,3.892,0,5.875,0c0-1.431,0-2.729,0-4.087c-4.396,0-8.729,0-13.04,0
			c0,14.018,0,27.987,0,41.937c4.717,0,9.339,0,13.984,0c0-1.438,0-2.811,0-4.253C388.278,117.853,385.763,117.803,383.251,117.875z
			"/>
		<linearGradient id="SVGID_10_" gradientUnits="userSpaceOnUse" x1="178.0005" y1="214.6006" x2="490.6617" y2="73.9361">
			<stop  offset="0" style="stop-color:#EB5E04"/>
			<stop  offset="0.2" style="stop-color:#F49800"/>
			<stop  offset="0.7261" style="stop-color:#63C01B"/>
			<stop  offset="1" style="stop-color:#1D7D1B"/>
		</linearGradient>
		<path fill-rule="evenodd" clip-rule="evenodd" fill="url(#SVGID_10_)" d="M424.404,84.262c1.558,0,3.065,0.003,4.572,0
			c2.044-0.005,2.056-0.007,2.057,2.073c0.003,11.429-0.001,22.859-0.003,34.288c0,0.5,0,1,0,1.459c1.763,0,3.339,0,5.011,0
			c0-0.803,0.001-1.516,0-2.229c-0.004-11.389,0.004-22.778-0.031-34.167c-0.004-1.115,0.385-1.482,1.47-1.439
			c1.662,0.067,3.327,0.018,5.031,0.018c0-1.411,0-2.677,0-4.091c-6.087,0-12.062,0-18.106,0
			C424.404,81.534,424.404,82.83,424.404,84.262z"/>
		<linearGradient id="SVGID_11_" gradientUnits="userSpaceOnUse" x1="141.4155" y1="133.2959" x2="454.0853" y2="-7.3724">
			<stop  offset="0" style="stop-color:#EB5E04"/>
			<stop  offset="0.2" style="stop-color:#F49800"/>
			<stop  offset="0.7261" style="stop-color:#63C01B"/>
			<stop  offset="1" style="stop-color:#1D7D1B"/>
		</linearGradient>
		<path fill-rule="evenodd" clip-rule="evenodd" fill="url(#SVGID_11_)" d="M207.16,84.259c1.704,0,3.338,0.068,4.964-0.022
			c1.169-0.065,1.496,0.337,1.492,1.493c-0.038,11.68-0.022,23.359-0.022,35.039c0,0.429,0,0.858,0,1.328c1.729,0,3.342,0,5.038,0
			c0-0.546,0-1.019,0-1.492c0.001-11.6,0.021-23.2-0.024-34.799c-0.005-1.25,0.427-1.61,1.59-1.564
			c1.618,0.064,3.241,0.016,4.858,0.016c0-1.481,0-2.788,0-4.079c-5.988,0-11.919,0-17.896,0
			C207.16,81.526,207.16,82.798,207.16,84.259z"/>
		<linearGradient id="SVGID_12_" gradientUnits="userSpaceOnUse" x1="147.145" y1="146.0283" x2="459.8122" y2="5.3612">
			<stop  offset="0" style="stop-color:#EB5E04"/>
			<stop  offset="0.2" style="stop-color:#F49800"/>
			<stop  offset="0.7261" style="stop-color:#63C01B"/>
			<stop  offset="1" style="stop-color:#1D7D1B"/>
		</linearGradient>
		<path fill-rule="evenodd" clip-rule="evenodd" fill="url(#SVGID_12_)" d="M230.657,103.584
			c0.761,9.748,8.621,17.747,16.775,19.299c0-1.22-0.053-2.34,0.019-3.453c0.05-0.777-0.2-1.223-0.888-1.603
			c-2.742-1.512-5.139-3.436-7.117-5.899c-4.312-5.366-5.011-12.56-2.055-18.448c2.088-4.159,5.385-7.104,9.418-9.311
			c0.341-0.186,0.79-0.565,0.811-0.879c0.088-1.379,0.038-2.767,0.038-4.186C238.457,81.727,229.63,90.437,230.657,103.584z"/>
		<linearGradient id="SVGID_13_" gradientUnits="userSpaceOnUse" x1="148.3555" y1="148.7168" x2="461.0218" y2="8.05">
			<stop  offset="0" style="stop-color:#EB5E04"/>
			<stop  offset="0.2" style="stop-color:#F49800"/>
			<stop  offset="0.7261" style="stop-color:#63C01B"/>
			<stop  offset="1" style="stop-color:#1D7D1B"/>
		</linearGradient>
		<path fill-rule="evenodd" clip-rule="evenodd" fill="url(#SVGID_13_)" d="M320.345,76.445c1.846-1.615,2.873-3.738,3.942-5.92
			c-0.629-0.336-1.176-0.628-1.86-0.994c-1.211,2.236-2.105,4.795-5.202,4.617c-2.76-0.159-3.675-2.395-4.654-4.616
			c-0.599,0.365-1.16,0.707-1.711,1.043c1.212,2.77,2.562,4.524,3.89,5.861C316.417,78.117,318.95,77.666,320.345,76.445z"/>
	</g>
	<g>
		<path fill-rule="evenodd" clip-rule="evenodd" fill="#00A03C" d="M433.886,170.577c0,0-0.318-2.017-0.422-2.567
			c-1.061-5.644-6.173-12.556-12.882-13.55c-0.874-0.129-4.475-0.204-5.435,0.04c-7.335,1.869-11.382,6.782-12.959,13.992
			c-0.07,0.322-0.278,2.085-0.278,2.085h2.83c0.574-4.193,2.419-7.596,5.844-10.165c-1.407,4.577-2.289,9.2-2.106,14.079
			c1.034,0,1.948,0.042,2.857-0.012c0.98-0.057,1.314,0.299,1.312,1.315c-0.024,6.877,0.013,13.755,0.029,20.632
			c0.002,0.5,0.001,1.001,0.001,1.488c1.114,0,2.167,0,3.249,0c0-7.017-0.016-13.936,0.007-20.854
			c0.009-2.919-0.431-2.495,2.65-2.588c1.121-0.034,1.432,0.377,1.426,1.463c-0.038,6.92-0.017,13.84-0.015,20.759
			c0,0.422,0,0.843,0,1.259c1.117,0,2.063,0,3.131,0c0-0.525,0-0.994,0-1.463c-0.001-6.88,0.018-13.759-0.023-20.639
			c-0.007-1.041,0.287-1.453,1.351-1.374c0.976,0.074,1.961,0.016,2.952,0.016c-0.009-4.915-0.594-9.562-2.161-14.128
			c0.96,0.601,1.782,1.23,2.387,2.026c1.84,2.421,3.149,5.11,3.476,8.185H433.886z"/>
		<ellipse fill-rule="evenodd" clip-rule="evenodd" fill="#00A03C" cx="417.883" cy="145.85" rx="6.77" ry="7.665"/>
	</g>
	<g>
		<path fill-rule="evenodd" clip-rule="evenodd" fill="#F49800" d="M401.911,170.577c0,0-0.318-2.017-0.422-2.567
			c-1.061-5.644-6.173-12.556-12.882-13.55c-0.874-0.129-4.475-0.204-5.435,0.04c-7.335,1.869-11.382,6.782-12.959,13.992
			c-0.07,0.322-0.278,2.085-0.278,2.085h2.83c0.574-4.193,2.419-7.596,5.844-10.165c-1.407,4.577-2.289,9.2-2.106,14.079
			c1.034,0,1.948,0.042,2.857-0.012c0.98-0.057,1.314,0.299,1.312,1.315c-0.024,6.877,0.013,13.755,0.029,20.632
			c0.002,0.5,0.001,1.001,0.001,1.488c1.114,0,2.167,0,3.249,0c0-7.017-0.016-13.936,0.007-20.854
			c0.009-2.919-0.431-2.495,2.65-2.588c1.121-0.034,1.432,0.377,1.426,1.463c-0.038,6.92-0.017,13.84-0.015,20.759
			c0,0.422,0,0.843,0,1.259c1.117,0,2.063,0,3.131,0c0-0.525,0-0.994,0-1.463c-0.001-6.88,0.018-13.759-0.023-20.639
			c-0.007-1.041,0.287-1.453,1.351-1.374c0.976,0.074,1.961,0.016,2.952,0.016c-0.009-4.915-0.594-9.562-2.161-14.128
			c0.96,0.601,1.782,1.23,2.387,2.026c1.84,2.421,3.149,5.11,3.476,8.185H401.911z"/>
		<ellipse fill-rule="evenodd" clip-rule="evenodd" fill="#F49800" cx="385.908" cy="145.85" rx="6.77" ry="7.665"/>
	</g>
	<g>
		<path fill-rule="evenodd" clip-rule="evenodd" fill="#D3190D" d="M369.935,170.577c0,0-0.318-2.017-0.422-2.567
			c-1.061-5.644-6.173-12.556-12.882-13.55c-0.874-0.129-4.475-0.204-5.435,0.04c-7.335,1.869-11.382,6.782-12.959,13.992
			c-0.07,0.322-0.278,2.085-0.278,2.085h2.83c0.574-4.193,2.419-7.596,5.844-10.165c-1.407,4.577-2.289,9.2-2.106,14.079
			c1.034,0,1.948,0.042,2.857-0.012c0.98-0.057,1.314,0.299,1.312,1.315c-0.024,6.877,0.013,13.755,0.029,20.632
			c0.002,0.5,0.001,1.001,0.001,1.488c1.114,0,2.167,0,3.249,0c0-7.017-0.016-13.936,0.007-20.854
			c0.009-2.919-0.431-2.495,2.65-2.588c1.121-0.034,1.432,0.377,1.426,1.463c-0.038,6.92-0.017,13.84-0.015,20.759
			c0,0.422,0,0.843,0,1.259c1.117,0,2.063,0,3.131,0c0-0.525,0-0.994,0-1.463c-0.001-6.88,0.018-13.759-0.023-20.639
			c-0.007-1.041,0.287-1.453,1.351-1.374c0.976,0.074,1.961,0.016,2.952,0.016c-0.009-4.915-0.594-9.562-2.161-14.128
			c0.96,0.601,1.782,1.23,2.387,2.026c1.84,2.421,3.149,5.11,3.476,8.185H369.935z"/>
		<ellipse fill-rule="evenodd" clip-rule="evenodd" fill="#D3190D" cx="353.932" cy="145.85" rx="6.77" ry="7.665"/>
	</g>
	<g>
		<path fill-rule="evenodd" clip-rule="evenodd" fill="#009EE3" d="M465.829,170.577c0,0-0.318-2.017-0.422-2.567
			c-1.061-5.644-6.173-12.556-12.882-13.55c-0.874-0.129-4.475-0.204-5.435,0.04c-7.335,1.869-11.382,6.782-12.959,13.992
			c-0.07,0.322-0.278,2.085-0.278,2.085h2.83c0.574-4.193,2.419-7.596,5.844-10.165c-1.407,4.577-2.289,9.2-2.106,14.079
			c1.034,0,1.948,0.042,2.857-0.012c0.98-0.057,1.314,0.299,1.312,1.315c-0.024,6.877,0.013,13.755,0.029,20.632
			c0.002,0.5,0.001,1.001,0.001,1.488c1.114,0,2.167,0,3.249,0c0-7.017-0.016-13.936,0.007-20.854
			c0.009-2.919-0.431-2.495,2.65-2.588c1.121-0.034,1.432,0.377,1.426,1.463c-0.038,6.92-0.017,13.84-0.015,20.759
			c0,0.422,0,0.843,0,1.259c1.117,0,2.063,0,3.131,0c0-0.525,0-0.994,0-1.463c-0.001-6.88,0.018-13.759-0.023-20.639
			c-0.007-1.041,0.287-1.453,1.351-1.374c0.976,0.074,1.961,0.016,2.952,0.016c-0.009-4.915-0.594-9.562-2.161-14.128
			c0.96,0.601,1.782,1.23,2.387,2.026c1.84,2.421,3.149,5.11,3.476,8.185H465.829z"/>
		<ellipse fill-rule="evenodd" clip-rule="evenodd" fill="#009EE3" cx="449.826" cy="145.85" rx="6.77" ry="7.665"/>
	</g>
</g>
<g id="Layer_2">
</g>
</svg>
