<?xml version="1.0" encoding="utf-8"?>
<!-- Generator: Adobe Illustrator 16.0.0, SVG Export Plug-In . SVG Version: 6.00 Build 0)  -->
<!DOCTYPE svg PUBLIC "-//W3C//DTD SVG 1.1//EN" "http://www.w3.org/Graphics/SVG/1.1/DTD/svg11.dtd">
<svg version="1.1" id="Layer_1" xmlns="http://www.w3.org/2000/svg" xmlns:xlink="http://www.w3.org/1999/xlink" x="0px" y="0px"
	 width="163.633px" height="137.601px" viewBox="-0.306 0 163.633 137.601" enable-background="new -0.306 0 163.633 137.601"
	 xml:space="preserve">
<g>
	<path fill="#FFFFFF" d="M37.88,11.279c3.17,4.567,6.34,9.136,9.51,13.701c0.722,1.041,5.415-0.295,4.629-1.428
		c-3.17-4.566-6.34-9.134-9.51-13.7C41.786,8.812,37.094,10.147,37.88,11.279L37.88,11.279z"/>
	<g>
		<path opacity="0.15" fill="#FFFFFF" enable-background="new    " d="M40.028,47.507c2.91-5.181,17.704-25.118,41.612-21.638
			c23.909,3.479,53.276,24.271,48.711,56.458c-4.328,30.514-44.895,35.503-74.672,19.239C44.927,95.694,38.386,85.878,35.866,77.63
			C31.652,63.842,38.223,50.721,40.028,47.507z"/>
		<path fill="#FFFFFF" d="M41.373,47.521c3.744-6.497,9.496-11.955,15.802-15.913c11.042-6.931,23.703-6.143,35.534-1.897
			c21.155,7.586,38.047,26.577,36.519,49.913c-1.597,24.367-25.775,32.317-46.839,29.655c-25.357-3.202-51.479-21.634-45.422-50.151
			C37.822,55.096,39.39,51.125,41.373,47.521c0.648-1.179-2.25-0.827-2.689-0.027c-5.135,9.327-7.095,20.166-4.267,30.525
			c2.951,10.812,11.619,19.697,21.27,24.854c16.532,8.835,37.764,11.747,55.447,4.737c18.234-7.227,24.449-26.479,19.365-44.562
			c-5.377-19.13-24.031-32.111-42.457-36.859c-19.149-4.936-39.502,4.193-49.36,21.304C38.016,48.65,40.919,48.311,41.373,47.521z"
			/>
	</g>
	<path fill="#FFFFFF" d="M51.481,48.471c-0.153,9.245,2.762,19.12,8.096,26.662c5.791,8.187,17.28,11.812,26.925,11.323
		c11.963-0.604,23.309-9.167,29.137-19.362c0.306-0.533-2.428-0.319-2.873,0.458c-5.719,10.005-16.613,18.027-28.4,17.6
		C64.62,84.434,54.082,65.745,54.38,47.695C54.389,47.079,51.497,47.525,51.481,48.471L51.481,48.471z"/>
	<path fill="#FFFFFF" d="M71.896,40.672c0,0,0.201-0.028,0.553-0.079c0.35-0.043,0.849-0.083,1.45-0.106
		c1.205-0.059,2.824-0.005,4.474,0.392c0.411,0.127,0.823,0.208,1.227,0.391c0.405,0.151,0.803,0.321,1.179,0.56
		c0.382,0.192,0.723,0.489,1.043,0.767c0.334,0.249,0.561,0.645,0.805,0.938c0.227,0.312,0.348,0.676,0.451,0.976
		c0.12,0.305,0.059,0.593,0.038,0.816c-0.065,0.455-0.214,0.688-0.214,0.688c-0.266,0.41-0.815,0.527-1.226,0.263
		c-0.016-0.01-0.03-0.021-0.045-0.03l-0.268-0.198c0,0-0.204-0.15-0.366-0.363c-0.089-0.104-0.128-0.244-0.241-0.358
		c-0.107-0.114-0.108-0.292-0.228-0.439c-0.141-0.137-0.192-0.336-0.402-0.479c-0.184-0.152-0.356-0.336-0.625-0.47
		c-0.229-0.165-0.51-0.305-0.812-0.434c-0.28-0.151-0.629-0.232-0.947-0.354c-0.663-0.216-1.366-0.37-2.039-0.495
		c-0.673-0.117-1.315-0.21-1.869-0.273c-0.554-0.07-1.02-0.095-1.344-0.124c-0.322-0.022-0.506-0.036-0.506-0.036l-0.038-0.003
		c-0.425-0.03-0.744-0.399-0.714-0.824C71.262,41.01,71.544,40.722,71.896,40.672z"/>
	<path fill="#FFFFFF" d="M93.021,45.752c0,0,0.197-0.021,0.543-0.051c0.342-0.021,0.83-0.05,1.416-0.024
		c0.589,0.007,1.273,0.078,2.014,0.185c0.734,0.134,1.531,0.303,2.312,0.614c0.392,0.16,0.783,0.313,1.16,0.547
		c0.386,0.188,0.734,0.477,1.069,0.757c0.347,0.257,0.606,0.655,0.88,0.967c0.229,0.357,0.401,0.748,0.537,1.096
		c0.069,0.373,0.1,0.721,0.106,1.02c0.01,0.3-0.095,0.541-0.146,0.74c-0.123,0.396-0.246,0.594-0.246,0.594
		c-0.229,0.361-0.705,0.471-1.065,0.242c-0.099-0.062-0.179-0.144-0.237-0.232l-0.137-0.216c0,0-0.112-0.175-0.215-0.431
		c-0.063-0.125-0.077-0.285-0.161-0.433c-0.089-0.146-0.166-0.299-0.216-0.476c-0.114-0.147-0.187-0.32-0.283-0.508
		c-0.164-0.156-0.245-0.368-0.469-0.525c-0.197-0.174-0.403-0.352-0.672-0.505c-0.237-0.176-0.535-0.312-0.824-0.452
		c-0.286-0.146-0.616-0.247-0.916-0.385c-0.321-0.104-0.635-0.215-0.949-0.301c-0.627-0.188-1.23-0.328-1.756-0.438
		c-0.524-0.112-0.969-0.193-1.277-0.248c-0.307-0.055-0.482-0.083-0.482-0.083l-0.041-0.007c-0.397-0.068-0.664-0.446-0.597-0.846
		C92.427,46.023,92.701,45.783,93.021,45.752z"/>
	<path fill="#FFFFFF" d="M71.066,1.88c0,5.97,0,11.938,0,17.907c0,2.198,4.984,1.872,4.984-0.394c0-5.97,0-11.938,0-17.907
		C76.05-0.71,71.066-0.382,71.066,1.88L71.066,1.88z"/>
	<path fill="#FFFFFF" d="M99.689,24.581c5.051-5.212,10.102-10.423,15.15-15.637c2.065-2.131-2.595-2.625-3.905-1.271
		c-5.052,5.212-10.101,10.424-15.151,15.636C93.716,25.439,98.378,25.934,99.689,24.581L99.689,24.581z"/>
	<path fill="#FFFFFF" d="M131.673,27.787c-3.547,2.305-7.092,4.607-10.64,6.913c-0.521,0.339-4.638,3.363-1.604,2.758
		c3.27-0.655,6.563-2.504,9.328-4.3c3.545-2.307,7.092-4.609,10.639-6.913c0.521-0.34,4.638-3.365,1.605-2.76
		C137.731,24.141,134.436,25.991,131.673,27.787L131.673,27.787z"/>
	<path fill="#FFFFFF" d="M134.666,55.156c7.522-0.537,15.045-1.075,22.566-1.612c1.07-0.077-1.279-4.168-2.617-4.072
		c-7.521,0.536-15.043,1.074-22.566,1.611C130.977,51.159,133.329,55.25,134.666,55.156L134.666,55.156z"/>
	<path fill="#FFFFFF" d="M160.093,82.092c-4.879-1.772-9.757-3.546-14.634-5.318c-2.089-0.759-4.721-0.563-6.855-0.145
		c-0.623,0.123-3.77,1.085-1.711,1.833c4.879,1.771,9.757,3.546,14.634,5.319c2.088,0.759,4.721,0.562,6.855,0.144
		C159.005,83.802,162.151,82.84,160.093,82.092L160.093,82.092z"/>
	<path fill="#FFFFFF" d="M126.806,110.901c3.673,3.602,7.346,7.199,11.018,10.802c1.255,1.229,2.078,0.913,1.624-0.895
		c-0.544-2.166-1.8-4.623-3.405-6.197c-3.673-3.601-7.346-7.197-11.018-10.8c-1.255-1.229-2.078-0.913-1.624,0.895
		C123.945,106.871,125.201,109.328,126.806,110.901L126.806,110.901z"/>
	<path fill="#FFFFFF" d="M106.412,118.116c0.699,4.675,1.397,9.35,2.096,14.021c0.32,2.142,3.922,1.097,3.603-1.046
		c-0.699-4.675-1.397-9.35-2.097-14.022C109.693,114.927,106.091,115.973,106.412,118.116L106.412,118.116z"/>
	<path fill="#FFFFFF" d="M79.948,121.243c-0.43,4.027-0.86,8.06-1.29,12.088c-0.308,2.887,4.291,4.267,4.63,1.08
		c0.431-4.029,0.86-8.061,1.29-12.09C84.886,119.436,80.288,118.056,79.948,121.243L79.948,121.243z"/>
	<path fill="#FFFFFF" d="M55.353,113.712c-1.612,4.565-3.224,9.135-4.835,13.7c-0.65,1.843,4.286,2.18,4.82,0.666
		c1.612-4.567,3.224-9.136,4.835-13.7C60.823,112.537,55.887,112.2,55.353,113.712L55.353,113.712z"/>
	<path fill="#FFFFFF" d="M33.628,100.768c-2.297,2.271-4.536,4.604-6.713,6.991c-1.201,1.315-6.211,5.761-5.409,7.927
		c0.518,1.396,5.278-0.101,4.815-1.349c-0.275-0.741,1.146-2.198,1.539-2.711c1.318-1.719,2.791-3.322,4.256-4.916
		c1.929-2.096,3.914-4.146,5.938-6.146c0.832-0.82-0.732-1.083-1.229-1.062C35.687,99.556,34.449,99.956,33.628,100.768
		L33.628,100.768z"/>
	<path fill="#FFFFFF" d="M4.307,91.537c5.373-3.707,10.746-7.415,16.119-11.122c1.544-1.064-3.197-1.846-4.307-1.078
		C10.746,83.043,5.373,86.75,0,90.458C-1.544,91.523,3.197,92.301,4.307,91.537L4.307,91.537z"/>
	<path fill="#FFFFFF" d="M3.653,58.716c6.394,0,12.787,0,19.181,0c1.074,0,2.321-0.635,3.225-1.154
		c0.267-0.152,1.586-1.015,0.545-1.015c-6.394,0-12.788,0-19.181,0c-1.074,0-2.321,0.636-3.225,1.155
		C3.932,57.856,2.612,58.716,3.653,58.716L3.653,58.716z"/>
	<path fill="#FFFFFF" d="M10.165,34.706c6.823,1.719,13.647,3.438,20.47,5.156c1.07,0.271,1.625-0.699,1.263-1.604
		c-0.47-1.176-1.604-1.891-2.779-2.186c-6.823-1.721-13.647-3.438-20.47-5.158c-1.07-0.271-1.625,0.701-1.263,1.604
		C7.856,33.694,8.99,34.41,10.165,34.706L10.165,34.706z"/>
	<g>
		<line fill="none" x1="43.902" y1="11.694" x2="53.895" y2="26.041"/>
		<path fill="#FFFFFF" d="M42.561,12.278c3.331,4.782,6.662,9.562,9.993,14.347c0.603,0.862,3.404-0.13,2.683-1.167
			c-3.331-4.782-6.662-9.562-9.993-14.347C44.641,10.248,41.839,11.243,42.561,12.278L42.561,12.278z"/>
	</g>
	<g>
		<path fill="#FFFFFF" d="M76.471,2.642c0,0,0.484,3.39,0.387,7.212c-0.097,3.823-0.777,12.229-0.777,12.229"/>
		<path fill="#FFFFFF" d="M75.023,3.031c0.866,6.431,0.127,13.006-0.39,19.438c-0.033,0.413,2.828,0.097,2.897-0.775
			c0.518-6.436,1.255-13.009,0.39-19.438C77.841,1.667,74.92,2.27,75.023,3.031L75.023,3.031z"/>
	</g>
	<g>
		<line fill="none" x1="116.917" y1="7.116" x2="100.316" y2="24.361"/>
		<path fill="#FFFFFF" d="M115.707,6.694c-5.533,5.749-11.066,11.498-16.602,17.247c-1.264,1.312,1.531,1.769,2.422,0.844
			c5.534-5.749,11.066-11.498,16.602-17.247C119.392,6.223,116.597,5.769,115.707,6.694L115.707,6.694z"/>
	</g>
	<g>
		<line fill="none" x1="142.224" y1="25.523" x2="125.46" y2="36.645"/>
		<path fill="#FFFFFF" d="M140.38,24.494c-5.588,3.708-11.176,7.415-16.764,11.122c-3.281,2.177,1.655,3.408,3.688,2.062
			c5.589-3.708,11.177-7.414,16.765-11.121C147.349,24.377,142.413,23.145,140.38,24.494L140.38,24.494z"/>
	</g>
	<g>
		<line fill="none" x1="138.011" y1="55.538" x2="158.974" y2="53.281"/>
		<path fill="#FFFFFF" d="M136.117,57.241c6.987-0.754,13.975-1.507,20.962-2.259c1.926-0.208,4.33-0.718,5.822-2.058
			c1.475-1.32-1.299-1.428-2.031-1.349c-6.988,0.752-13.975,1.505-20.962,2.257c-1.926,0.208-4.331,0.718-5.822,2.058
			C132.611,57.212,135.384,57.318,136.117,57.241L136.117,57.241z"/>
	</g>
	<g>
		<line fill="none" x1="143.08" y1="79.393" x2="159.47" y2="85.84"/>
		<path fill="#FFFFFF" d="M140.738,80.663c5.464,2.147,10.927,4.298,16.39,6.446c1.506,0.594,6.801-1.706,4.686-2.539
			c-5.465-2.147-10.927-4.298-16.392-6.445C143.916,77.533,138.621,79.831,140.738,80.663L140.738,80.663z"/>
	</g>
	<g>
		<path fill="#FFFFFF" d="M127.073,105.667c0.483,0,16.683,16.684,16.683,16.684"/>
		<path fill="#FFFFFF" d="M125.923,106.379c0.987,0.396,2.125,1.98,2.891,2.737c1.906,1.883,3.789,3.791,5.67,5.698
			c2.652,2.69,5.295,5.396,7.928,8.104c0.729,0.749,3.48-0.332,2.688-1.147c-2.786-2.869-5.584-5.729-8.393-8.577
			c-1.846-1.871-3.697-3.738-5.568-5.587c-0.797-0.784-1.836-2.228-2.916-2.656C127.327,104.592,124.69,105.885,125.923,106.379
			L125.923,106.379z"/>
	</g>
	<g>
		<path fill="#FFFFFF" d="M112.241,118.464l2.413,14.641l0.648,3.733"/>
		<path fill="#FFFFFF" d="M110.792,118.853c1.01,6.126,1.998,12.257,3.062,18.375c0.12,0.688,3.036,0.022,2.897-0.775
			c-1.062-6.117-2.053-12.248-3.062-18.375C113.577,117.393,110.659,118.046,110.792,118.853L110.792,118.853z"/>
	</g>
	<g>
		<line fill="none" x1="85.97" y1="122.59" x2="83.876" y2="136.615"/>
		<path fill="#FFFFFF" d="M84.509,122.722c-0.699,4.674-1.397,9.349-2.096,14.021c-0.207,1.381,2.743,0.943,2.924-0.265
			c0.698-4.673,1.396-9.35,2.096-14.021C87.64,121.08,84.69,121.514,84.509,122.722L84.509,122.722z"/>
	</g>
	<g>
		<line fill="none" x1="60.822" y1="114.854" x2="55.665" y2="130.167"/>
		<path fill="#FFFFFF" d="M59.383,115.071c-1.719,5.104-3.438,10.208-5.158,15.312c-0.27,0.804,2.591,0.422,2.879-0.434
			c1.719-5.104,3.438-10.208,5.158-15.312C62.532,113.834,59.671,114.216,59.383,115.071L59.383,115.071z"/>
	</g>
	<g>
		<line fill="none" x1="36.423" y1="104.131" x2="24.011" y2="118.477"/>
		<path fill="#FFFFFF" d="M34.035,103.418c-4.137,4.782-8.274,9.562-12.411,14.347c-2.354,2.721,3.231,3.209,4.774,1.426
			c4.137-4.78,8.274-9.562,12.411-14.347C41.163,102.125,35.578,101.635,34.035,103.418L34.035,103.418z"/>
	</g>
	<g>
		<path fill="#FFFFFF" d="M24.694,76.461c0,0-16.279,12.732-17.247,13.217"/>
		<path fill="#FFFFFF" d="M22.448,76.273c-2.655,2.077-5.316,4.146-7.981,6.211c-1.936,1.5-3.875,2.995-5.824,4.479
			c-0.663,0.505-1.329,1.007-1.997,1.506c-0.209,0.155-1.694,1.157-0.901,0.7c-3.354,1.934,1.928,1.868,3.407,1.017
			c6.345-3.656,12.027-9.03,17.79-13.537C29.347,74.768,23.55,75.413,22.448,76.273L22.448,76.273z"/>
	</g>
	<g>
		<line fill="none" x1="8.603" y1="59.246" x2="27.463" y2="60.375"/>
		<path fill="#FFFFFF" d="M7.448,60.784c6.286,0.376,12.573,0.752,18.859,1.129c2.062,0.123,6.218-2.845,2.311-3.077
			c-6.286-0.376-12.573-0.752-18.859-1.129C7.697,57.583,3.54,60.549,7.448,60.784L7.448,60.784z"/>
	</g>
	<g>
		<line fill="none" x1="12.956" y1="35.487" x2="33.265" y2="39.903"/>
		<path fill="#FFFFFF" d="M11.217,37.192c6.77,1.474,13.54,2.943,20.309,4.416c2.062,0.449,6.867-2.673,3.479-3.408
			c-6.77-1.474-13.54-2.944-20.309-4.416C12.633,33.333,7.828,36.456,11.217,37.192L11.217,37.192z"/>
	</g>
</g>
<g id="Layer_2">
</g>
</svg>
