<?xml version="1.0" encoding="utf-8"?>
<!-- Generator: Adobe Illustrator 16.0.0, SVG Export Plug-In . SVG Version: 6.00 Build 0)  -->
<!DOCTYPE svg PUBLIC "-//W3C//DTD SVG 1.1//EN" "http://www.w3.org/Graphics/SVG/1.1/DTD/svg11.dtd">
<svg version="1.1" id="Layer_1" xmlns="http://www.w3.org/2000/svg" xmlns:xlink="http://www.w3.org/1999/xlink" x="0px" y="0px"
	 width="466.625px" height="205.691px" viewBox="0 0 466.625 205.691" enable-background="new 0 0 466.625 205.691"
	 xml:space="preserve">
<g>
	<path fill="#FFFFFF" d="M37.88,11.279c3.17,4.567,6.34,9.136,9.51,13.701c0.722,1.041,5.415-0.295,4.629-1.427
		c-3.17-4.567-6.34-9.134-9.51-13.701C41.786,8.812,37.094,10.147,37.88,11.279L37.88,11.279z"/>
	<g>
		<path opacity="0.15" fill="#FFFFFF" d="M40.028,47.507c2.91-5.181,17.704-25.119,41.612-21.638
			c23.909,3.479,53.276,24.271,48.711,56.458c-4.328,30.514-44.895,35.503-74.672,19.239c-10.752-5.872-17.293-15.688-19.813-23.936
			C31.652,63.842,38.223,50.721,40.028,47.507z"/>
		<path fill="#FFFFFF" d="M41.373,47.521c3.744-6.497,9.496-11.955,15.802-15.913c11.042-6.93,23.703-6.142,35.534-1.897
			c21.155,7.586,38.047,26.577,36.519,49.913c-1.597,24.367-25.775,32.317-46.839,29.655c-25.357-3.202-51.479-21.634-45.422-50.151
			C37.822,55.096,39.39,51.125,41.373,47.521c0.648-1.178-2.25-0.827-2.689-0.027c-5.135,9.327-7.095,20.166-4.267,30.525
			c2.951,10.812,11.619,19.698,21.27,24.855c16.532,8.835,37.764,11.747,55.447,4.737c18.234-7.226,24.449-26.479,19.365-44.562
			c-5.377-19.13-24.031-32.112-42.457-36.86c-19.149-4.935-39.502,4.194-49.36,21.304C38.016,48.65,40.919,48.311,41.373,47.521z"/>
	</g>
	<path fill="#FFFFFF" d="M51.481,48.471c-0.153,9.246,2.762,19.121,8.096,26.663c5.791,8.186,17.28,11.811,26.925,11.323
		c11.963-0.605,23.309-9.167,29.137-19.362c0.306-0.534-2.428-0.32-2.873,0.458c-5.719,10.004-16.613,18.027-28.4,17.599
		C64.62,84.434,54.082,65.745,54.38,47.695C54.389,47.079,51.497,47.525,51.481,48.471L51.481,48.471z"/>
	<path fill="#FFFFFF" d="M71.896,40.672c0,0,0.201-0.029,0.553-0.079c0.35-0.043,0.849-0.083,1.45-0.107
		c1.205-0.058,2.824-0.005,4.474,0.392c0.411,0.127,0.823,0.208,1.227,0.39c0.405,0.152,0.803,0.322,1.179,0.56
		c0.382,0.192,0.723,0.489,1.043,0.767c0.334,0.249,0.561,0.644,0.805,0.938c0.227,0.312,0.348,0.676,0.451,0.976
		c0.12,0.304,0.059,0.592,0.038,0.816c-0.065,0.455-0.214,0.687-0.214,0.687c-0.266,0.411-0.815,0.528-1.226,0.263
		c-0.016-0.01-0.03-0.02-0.045-0.03l-0.268-0.198c0,0-0.204-0.151-0.366-0.364c-0.089-0.104-0.128-0.244-0.241-0.358
		c-0.107-0.114-0.108-0.292-0.228-0.439c-0.141-0.137-0.192-0.336-0.402-0.479c-0.184-0.152-0.356-0.336-0.625-0.47
		c-0.229-0.165-0.51-0.304-0.812-0.433c-0.28-0.152-0.629-0.233-0.947-0.355c-0.663-0.216-1.366-0.37-2.039-0.495
		c-0.673-0.117-1.315-0.21-1.869-0.273c-0.554-0.071-1.02-0.095-1.344-0.124c-0.322-0.023-0.506-0.037-0.506-0.037l-0.038-0.002
		c-0.425-0.031-0.744-0.4-0.714-0.825C71.262,41.011,71.544,40.722,71.896,40.672z"/>
	<path fill="#FFFFFF" d="M93.021,45.752c0,0,0.197-0.021,0.543-0.051c0.342-0.021,0.83-0.05,1.416-0.024
		c0.589,0.006,1.273,0.078,2.014,0.184c0.734,0.134,1.531,0.303,2.312,0.614c0.392,0.161,0.783,0.314,1.16,0.547
		c0.386,0.189,0.734,0.477,1.069,0.757c0.347,0.257,0.606,0.655,0.88,0.967c0.229,0.357,0.401,0.748,0.537,1.096
		c0.069,0.373,0.1,0.72,0.106,1.019c0.01,0.3-0.095,0.541-0.146,0.74c-0.123,0.397-0.246,0.594-0.246,0.594
		c-0.229,0.361-0.705,0.471-1.065,0.242c-0.099-0.062-0.179-0.143-0.237-0.232l-0.137-0.216c0,0-0.112-0.175-0.215-0.431
		c-0.063-0.125-0.077-0.285-0.161-0.432c-0.089-0.146-0.166-0.299-0.216-0.476c-0.114-0.147-0.187-0.32-0.283-0.508
		c-0.164-0.156-0.245-0.368-0.469-0.525c-0.197-0.174-0.403-0.352-0.672-0.505c-0.237-0.176-0.535-0.311-0.824-0.452
		c-0.286-0.147-0.616-0.247-0.916-0.385c-0.321-0.103-0.635-0.215-0.949-0.301c-0.627-0.187-1.23-0.328-1.756-0.438
		c-0.524-0.112-0.969-0.193-1.277-0.248c-0.307-0.055-0.482-0.083-0.482-0.083l-0.041-0.007c-0.397-0.068-0.664-0.446-0.597-0.846
		C92.427,46.023,92.701,45.783,93.021,45.752z"/>
	<path fill="#FFFFFF" d="M71.066,1.88c0,5.969,0,11.938,0,17.907c0,2.198,4.984,1.872,4.984-0.394c0-5.969,0-11.938,0-17.907
		C76.05-0.71,71.066-0.382,71.066,1.88L71.066,1.88z"/>
	<path fill="#FFFFFF" d="M99.689,24.581c5.051-5.212,10.102-10.423,15.15-15.637c2.065-2.131-2.595-2.625-3.905-1.271
		c-5.052,5.212-10.101,10.423-15.151,15.635C93.716,25.439,98.378,25.934,99.689,24.581L99.689,24.581z"/>
	<path fill="#FFFFFF" d="M131.673,27.787c-3.547,2.305-7.092,4.607-10.64,6.913c-0.521,0.339-4.638,3.363-1.604,2.758
		c3.27-0.655,6.563-2.504,9.328-4.3c3.545-2.307,7.092-4.609,10.639-6.913c0.521-0.34,4.638-3.365,1.605-2.76
		C137.731,24.141,134.436,25.991,131.673,27.787L131.673,27.787z"/>
	<path fill="#FFFFFF" d="M134.666,55.156c7.522-0.537,15.045-1.075,22.566-1.612c1.07-0.077-1.279-4.168-2.617-4.073
		c-7.521,0.537-15.043,1.075-22.566,1.612C130.977,51.159,133.329,55.25,134.666,55.156L134.666,55.156z"/>
	<path fill="#FFFFFF" d="M160.093,82.092c-4.879-1.773-9.757-3.546-14.634-5.319c-2.089-0.759-4.721-0.563-6.855-0.144
		c-0.623,0.123-3.77,1.085-1.711,1.833c4.879,1.771,9.757,3.546,14.634,5.319c2.088,0.759,4.721,0.563,6.855,0.144
		C159.005,83.802,162.151,82.84,160.093,82.092L160.093,82.092z"/>
	<path fill="#FFFFFF" d="M126.806,110.901c3.673,3.602,7.346,7.199,11.018,10.802c1.255,1.229,2.078,0.913,1.624-0.895
		c-0.544-2.166-1.8-4.623-3.405-6.197c-3.673-3.6-7.346-7.197-11.018-10.8c-1.255-1.229-2.078-0.913-1.624,0.895
		C123.945,106.871,125.201,109.328,126.806,110.901L126.806,110.901z"/>
	<path fill="#FFFFFF" d="M106.412,118.116c0.699,4.675,1.397,9.35,2.096,14.021c0.32,2.141,3.922,1.096,3.603-1.046
		c-0.699-4.675-1.397-9.35-2.097-14.023C109.693,114.927,106.091,115.973,106.412,118.116L106.412,118.116z"/>
	<path fill="#FFFFFF" d="M79.948,121.243c-0.43,4.027-0.86,8.06-1.29,12.088c-0.308,2.887,4.291,4.266,4.63,1.08
		c0.431-4.029,0.86-8.061,1.29-12.09C84.886,119.436,80.288,118.056,79.948,121.243L79.948,121.243z"/>
	<path fill="#FFFFFF" d="M55.353,113.712c-1.612,4.565-3.224,9.134-4.835,13.7c-0.65,1.843,4.286,2.18,4.82,0.666
		c1.612-4.567,3.224-9.136,4.835-13.7C60.823,112.537,55.887,112.2,55.353,113.712L55.353,113.712z"/>
	<path fill="#FFFFFF" d="M33.628,100.768c-2.297,2.271-4.536,4.605-6.713,6.992c-1.201,1.315-6.211,5.76-5.409,7.926
		c0.518,1.396,5.278-0.1,4.815-1.348c-0.275-0.742,1.146-2.199,1.539-2.711c1.318-1.719,2.791-3.323,4.256-4.916
		c1.929-2.096,3.914-4.146,5.938-6.146c0.832-0.82-0.732-1.083-1.229-1.061C35.687,99.556,34.449,99.956,33.628,100.768
		L33.628,100.768z"/>
	<path fill="#FFFFFF" d="M4.307,91.537c5.373-3.707,10.746-7.415,16.119-11.122c1.544-1.065-3.197-1.846-4.307-1.078
		C10.746,83.043,5.373,86.75,0,90.458C-1.544,91.523,3.197,92.301,4.307,91.537L4.307,91.537z"/>
	<path fill="#FFFFFF" d="M3.653,58.716c6.394,0,12.787,0,19.181,0c1.074,0,2.321-0.635,3.225-1.155
		c0.267-0.152,1.586-1.014,0.545-1.014c-6.394,0-12.788,0-19.181,0c-1.074,0-2.321,0.635-3.225,1.155
		C3.932,57.856,2.612,58.716,3.653,58.716L3.653,58.716z"/>
	<path fill="#FFFFFF" d="M10.165,34.706c6.823,1.719,13.647,3.438,20.47,5.156c1.07,0.271,1.625-0.699,1.263-1.604
		c-0.47-1.176-1.604-1.891-2.779-2.186c-6.823-1.721-13.647-3.438-20.47-5.158c-1.07-0.271-1.625,0.701-1.263,1.604
		C7.856,33.694,8.99,34.41,10.165,34.706L10.165,34.706z"/>
	<g>
		<line fill="#FFFFFF" x1="43.902" y1="11.694" x2="53.895" y2="26.041"/>
		<path fill="#FFFFFF" d="M42.561,12.278c3.331,4.782,6.662,9.563,9.993,14.347c0.603,0.862,3.404-0.13,2.683-1.167
			c-3.331-4.782-6.662-9.563-9.993-14.347C44.641,10.248,41.839,11.243,42.561,12.278L42.561,12.278z"/>
	</g>
	<g>
		<path fill="#FFFFFF" d="M76.471,2.642c0,0,0.484,3.39,0.387,7.212c-0.097,3.824-0.777,12.229-0.777,12.229"/>
		<path fill="#FFFFFF" d="M75.023,3.031c0.866,6.431,0.127,13.006-0.39,19.438c-0.033,0.413,2.828,0.096,2.897-0.776
			c0.518-6.435,1.255-13.009,0.39-19.438C77.841,1.667,74.92,2.27,75.023,3.031L75.023,3.031z"/>
	</g>
	<g>
		<line fill="#FFFFFF" x1="116.917" y1="7.116" x2="100.316" y2="24.361"/>
		<path fill="#FFFFFF" d="M115.707,6.694c-5.533,5.749-11.066,11.498-16.602,17.247c-1.264,1.312,1.531,1.769,2.422,0.844
			c5.534-5.749,11.066-11.498,16.602-17.247C119.392,6.223,116.597,5.769,115.707,6.694L115.707,6.694z"/>
	</g>
	<g>
		<line fill="#FFFFFF" x1="142.224" y1="25.523" x2="125.46" y2="36.645"/>
		<path fill="#FFFFFF" d="M140.38,24.494c-5.588,3.708-11.176,7.415-16.764,11.122c-3.281,2.177,1.655,3.408,3.688,2.062
			c5.589-3.708,11.177-7.415,16.765-11.122C147.349,24.377,142.413,23.145,140.38,24.494L140.38,24.494z"/>
	</g>
	<g>
		<line fill="#FFFFFF" x1="138.011" y1="55.538" x2="158.974" y2="53.281"/>
		<path fill="#FFFFFF" d="M136.117,57.241c6.987-0.754,13.975-1.507,20.962-2.259c1.926-0.208,4.33-0.718,5.822-2.057
			c1.475-1.321-1.299-1.428-2.031-1.349c-6.988,0.752-13.975,1.505-20.962,2.257c-1.926,0.208-4.331,0.718-5.822,2.057
			C132.611,57.212,135.384,57.318,136.117,57.241L136.117,57.241z"/>
	</g>
	<g>
		<line fill="#FFFFFF" x1="143.08" y1="79.393" x2="159.47" y2="85.84"/>
		<path fill="#FFFFFF" d="M140.738,80.663c5.464,2.147,10.927,4.298,16.39,6.446c1.506,0.594,6.801-1.706,4.686-2.539
			c-5.465-2.147-10.927-4.298-16.392-6.445C143.916,77.533,138.621,79.831,140.738,80.663L140.738,80.663z"/>
	</g>
	<g>
		<path fill="#FFFFFF" d="M127.073,105.667c0.483,0,16.683,16.683,16.683,16.683"/>
		<path fill="#FFFFFF" d="M125.923,106.379c0.987,0.396,2.125,1.98,2.891,2.737c1.906,1.883,3.789,3.791,5.67,5.698
			c2.652,2.691,5.295,5.396,7.928,8.105c0.729,0.749,3.48-0.332,2.688-1.148c-2.786-2.869-5.584-5.729-8.393-8.577
			c-1.846-1.871-3.697-3.738-5.568-5.587c-0.797-0.784-1.836-2.227-2.916-2.656C127.327,104.592,124.69,105.886,125.923,106.379
			L125.923,106.379z"/>
	</g>
	<g>
		<path fill="#FFFFFF" d="M112.241,118.464l2.413,14.64l0.648,3.734"/>
		<path fill="#FFFFFF" d="M110.792,118.853c1.01,6.126,1.998,12.257,3.062,18.375c0.12,0.689,3.036,0.023,2.897-0.775
			c-1.062-6.117-2.053-12.248-3.062-18.375C113.577,117.393,110.659,118.046,110.792,118.853L110.792,118.853z"/>
	</g>
	<g>
		<line fill="#FFFFFF" x1="85.97" y1="122.59" x2="83.876" y2="136.615"/>
		<path fill="#FFFFFF" d="M84.509,122.722c-0.699,4.674-1.397,9.349-2.096,14.022c-0.207,1.381,2.743,0.943,2.924-0.265
			c0.698-4.673,1.396-9.349,2.096-14.021C87.64,121.08,84.69,121.514,84.509,122.722L84.509,122.722z"/>
	</g>
	<g>
		<line fill="#FFFFFF" x1="60.822" y1="114.854" x2="55.665" y2="130.167"/>
		<path fill="#FFFFFF" d="M59.383,115.071c-1.719,5.104-3.438,10.208-5.158,15.312c-0.27,0.803,2.591,0.421,2.879-0.434
			c1.719-5.104,3.438-10.208,5.158-15.312C62.532,113.834,59.671,114.216,59.383,115.071L59.383,115.071z"/>
	</g>
	<g>
		<line fill="#FFFFFF" x1="36.423" y1="104.131" x2="24.011" y2="118.477"/>
		<path fill="#FFFFFF" d="M34.035,103.418c-4.137,4.782-8.274,9.562-12.411,14.346c-2.354,2.721,3.231,3.209,4.774,1.426
			c4.137-4.78,8.274-9.562,12.411-14.346C41.163,102.125,35.578,101.635,34.035,103.418L34.035,103.418z"/>
	</g>
	<g>
		<path fill="#FFFFFF" d="M24.694,76.461c0,0-16.279,12.732-17.247,13.217"/>
		<path fill="#FFFFFF" d="M22.448,76.273c-2.655,2.077-5.316,4.147-7.981,6.211c-1.936,1.5-3.875,2.995-5.824,4.479
			c-0.663,0.505-1.329,1.007-1.997,1.506c-0.209,0.155-1.694,1.157-0.901,0.7c-3.354,1.933,1.928,1.868,3.407,1.016
			c6.345-3.656,12.027-9.03,17.79-13.537C29.347,74.768,23.55,75.413,22.448,76.273L22.448,76.273z"/>
	</g>
	<g>
		<line fill="#FFFFFF" x1="8.603" y1="59.246" x2="27.463" y2="60.375"/>
		<path fill="#FFFFFF" d="M7.448,60.784c6.286,0.376,12.573,0.752,18.859,1.129c2.062,0.123,6.218-2.845,2.311-3.077
			c-6.286-0.376-12.573-0.752-18.859-1.129C7.697,57.583,3.54,60.549,7.448,60.784L7.448,60.784z"/>
	</g>
	<g>
		<line fill="#FFFFFF" x1="12.956" y1="35.487" x2="33.265" y2="39.903"/>
		<path fill="#FFFFFF" d="M11.217,37.192c6.77,1.474,13.54,2.944,20.309,4.416c2.062,0.449,6.867-2.673,3.479-3.408
			c-6.77-1.474-13.54-2.944-20.309-4.416C12.633,33.333,7.828,36.456,11.217,37.192L11.217,37.192z"/>
	</g>
</g>
<path fill="#FFFFFF" d="M306.474,205.692c-0.022-9.758-0.048-19.516-0.067-29.272c-0.007-3.111-0.002-6.225-0.002-9.335
	c-0.15-0.026-0.302-0.055-0.453-0.081c-0.24,0.593-0.488,1.183-0.722,1.779c-1.978,5.071-3.933,10.152-5.938,15.214
	c-0.5,1.261,0.476,2.132,0.662,3.349c-3.326,1.458-6.697,2.938-10.281,4.507c-2.709-7.213-5.407-14.398-8.105-21.586
	c-0.137,0.022-0.273,0.046-0.408,0.068c0,10.384,0,20.769,0,31.213c-3.815,0.49-7.412,0.952-11.094,1.426
	c-0.208-22.9-0.416-45.752-0.625-68.807c4.006-0.559,7.926-1.104,11.989-1.669c3.798,11.544,7.601,23.098,11.399,34.65
	c0.117,0.009,0.233,0.018,0.352,0.024c0.426-1.069,0.886-2.127,1.273-3.21c3.502-9.771,7.096-19.514,10.412-29.35
	c0.797-2.363,1.852-3.28,4.313-3.396c2.899-0.136,5.772-0.812,8.841-1.281c-0.171,24.829-0.34,49.52-0.51,74.312
	c-1.824,0.248-3.576,0.477-5.326,0.727c-1.585,0.229-3.167,0.479-4.751,0.719C307.114,205.692,306.793,205.692,306.474,205.692z"/>
<path fill="#FFFFFF" d="M54.713,133.212c0.08-0.826,0.159-1.652,0.242-2.479c0.066-0.66,0.136-1.32,0.209-2.025
	c3.736,0.652,7.318,1.261,10.892,1.916c0.878,0.161,1.461,0.562,1.396,1.696c-0.166,2.867-0.178,5.743-0.27,8.615
	c-0.06,1.865-0.295,3.738-0.197,5.595c0.159,2.988,0.328,6.019,1.588,8.804c2.66,5.879,8,6.863,13.492,3.896
	c0.035-0.019,0.061-0.052,0.096-0.07c1.964-1.102,3.336-2.212,2.903-5.042c-0.599-3.909-0.364-7.939-0.623-11.909
	c-0.232-3.554-0.649-7.095-1-10.812c4.238-0.979,8.421-1.948,12.746-2.948c0.082,0.416,0.215,0.821,0.235,1.233
	c0.112,2.271,0.207,4.541,0.289,6.812c0.17,4.7,0.367,9.401,0.481,14.104c0.123,5.067,0.201,10.137,0.225,15.206
	c0.012,2.467-0.086,4.938-0.236,7.401c-0.327,5.392-0.704,10.781-2.99,15.806c-1.776,3.903-4.379,7.107-8.133,9.248
	c-7.232,4.123-14.176,2.918-20.815-1.412c-2.933-1.912-5.254-4.533-7.354-7.33c-0.212-0.283-0.395-0.597-0.645-0.841
	c-0.479-0.468-0.468-0.806,0.066-1.265c1.474-1.268,2.897-2.595,4.343-3.896c0.943-0.849,1.89-1.694,2.899-2.598
	c0.992,1.198,1.896,2.436,2.948,3.531c2.82,2.938,6.32,4.353,10.367,3.92c2.926-0.312,4.893-2.168,6.138-4.801
	c0.916-1.935,1.562-3.938,1.672-6.094c0.109-2.144,0.226-4.287,0.321-6.432c0.008-0.17-0.126-0.347-0.16-0.432
	c-1.983,0.749-3.874,1.572-5.833,2.173c-2.06,0.631-4.181,0.562-6.341,0.341c-5.645-0.581-9.556-3.8-12.709-8.144
	c-2.525-3.478-3.933-7.479-4.784-11.661c-0.943-4.634-1.303-9.33-1.228-14.062c0.006-0.415-0.149-0.832-0.229-1.249
	C54.713,136.412,54.713,134.812,54.713,133.212z"/>
<path fill="#FFFFFF" d="M139.633,130.605c4.084-0.45,7.994-0.88,11.913-1.312c0,11.706,0,23.229,0,34.754
	c0.084,0.042,0.168,0.084,0.252,0.127c6.186-12.776,12.371-25.553,18.574-38.365c3.37,2.027,6.656,4.005,9.943,5.983
	c0.562,0.338,0.675,0.723,0.347,1.352c-1.128,2.161-3.163,6.562-3.163,6.562s-0.399,58.132-0.399,60.825
	c-3.813,0.589-7.312,1.13-11.173,1.727c0-12.938,0-25.682,0-38.425c-0.17-0.03-14.98,30.409-14.98,30.409s0.006,5.912,0.006,8.999
	c-3.575,0.555-7.133,1.105-10.937,1.694C139.888,180.171,139.761,155.453,139.633,130.605z"/>
<path fill="#FFFFFF" d="M182.05,132.984c3.831-0.545,7.758-1.104,11.808-1.681c0,12.263,0,24.497,0,36.731
	c0.136,0.04,0.271,0.08,0.407,0.119c5.453-13.237,10.905-26.477,16.448-39.933c3.753,1.788,7.467,3.557,11.263,5.366
	c-1.151,2.683-2.277,5.306-3.401,7.93c-2.935,6.855-5.868,13.712-8.803,20.567c-1.759,4.106-3.466,8.24-5.321,12.305
	c-0.479,1.051-0.086,1.505,0.633,1.974c1.968,1.284,3.958,2.537,5.932,3.812c3.602,2.324,7.207,4.646,10.783,7.009
	c0.254,0.168,0.474,0.738,0.385,1.021c-1.262,3.985-2.58,7.954-3.899,11.97c-6.514-4.037-12.96-8.032-19.528-12.104
	c-0.913,2.173-1.8,4.258-2.667,6.352c-0.735,1.774-1.474,3.55-2.159,5.345c-0.419,1.099-1.44,0.712-2.144,0.836
	c-2.521,0.44-5.076,0.692-7.621,0.993c-0.464,0.055-0.941,0.008-1.623,0.008C182.379,178.726,182.215,155.927,182.05,132.984z"/>
<path fill="#FFFFFF" d="M226.69,189.521c2.631-2.351,5.157-4.605,7.787-6.955c0.531,0.649,1.057,1.271,1.561,1.907
	c2.555,3.242,5.76,5.33,9.976,5.618c3.741,0.256,6.68-2.003,8.146-5.387c1.146-2.646,1.653-5.421,1.676-8.293
	c0.01-1.388,0.002-2.773,0.002-4.347c-0.355,0.157-0.73,0.286-1.069,0.479c-2.478,1.405-5.164,2.264-7.978,2.368
	c-4.406,0.163-8.455-0.979-11.908-3.908c-4.979-4.226-7.429-9.82-8.779-16.007c-0.875-4.012-1.198-8.088-1.237-12.192
	c-0.022-2.388-0.204-4.773-0.211-7.163c-0.005-1.707,0.159-3.415,0.261-5.358c1.368,0.201,2.668,0.366,3.958,0.59
	c2.566,0.443,5.124,0.939,7.69,1.372c0.825,0.139,1.127,0.467,1.007,1.343c-0.217,1.568-0.372,3.149-0.442,4.73
	c-0.127,2.833-0.246,5.669-0.234,8.504c0.014,3.293,0.25,6.589,1.438,9.7c1.039,2.731,2.777,5.095,5.75,5.628
	c2.979,0.536,6.035,0.237,8.644-1.713c0.407-0.305,0.858-0.548,1.274-0.844c0.879-0.628,1.433-1.378,0.974-2.542
	c-0.111-0.283-0.079-0.629-0.093-0.946c-0.164-3.979-0.229-7.965-0.512-11.936c-0.25-3.502-0.758-6.984-1.104-10.48
	c-0.027-0.275,0.273-0.8,0.506-0.854c4.094-0.967,8.2-1.879,12.307-2.798c0.063-0.015,0.146,0.045,0.217,0.069
	c0.113,1.948,0.262,3.896,0.332,5.845c0.111,3.03,0.174,6.062,0.25,9.097c0.162,6.38,0.379,12.761,0.457,19.142
	c0.045,3.668-0.031,7.347-0.25,11.008c-0.281,4.727-0.676,9.447-2.357,13.956c-2.075,5.563-5.792,9.631-11.188,12.008
	c-2.82,1.241-5.877,1.383-8.982,0.99c-3.176-0.399-6.078-1.475-8.693-3.205C232.175,196.511,229.233,193.291,226.69,189.521z"/>
<path fill="#FFFFFF" d="M111.592,200.852c-3.702,0.469-7.329,0.928-11.278,1.43c0-2.794,0-5.538,0-8.284
	c-0.001-8.52,0.026-17.037-0.011-25.557c-0.049-11.187-0.139-22.373-0.247-33.559c-0.009-0.924,0.25-1.367,1.184-1.494
	c3.386-0.463,6.765-0.969,10.353-1.489c0,0.569,0,0.987,0,1.406c0.005,5.039,0.01,10.078,0.019,15.117
	c0.001,0.513-0.004,1.029,0.056,1.537c0.082,0.699,0.26,1.096,1.215,0.901c1.392-0.281,2.846-0.247,4.272-0.37
	c1.659-0.144,3.313-0.375,4.975-0.441c0.936-0.038,0.996-0.499,0.994-1.226c-0.017-5.278-0.009-10.559-0.008-15.838
	c0-1.584,0.224-1.753,1.83-1.938c2.6-0.3,5.188-0.687,7.783-1.03c0.662-0.088,1.327-0.156,1.994-0.233c0,22.987,0,45.881,0,68.895
	c-3.749,0.472-7.365,0.927-11.049,1.392c-0.027-0.229-0.073-0.444-0.075-0.659c-0.085-9.865-0.157-19.73-0.255-29.597
	c-0.016-1.63-0.167-3.259-0.207-4.889c-0.017-0.685-0.379-0.809-0.927-0.751c-1.492,0.154-2.986,0.3-4.474,0.484
	c-1.643,0.203-3.276,0.484-4.921,0.659c-0.977,0.104-1.224,0.584-1.222,1.508c0.02,10.918,0.006,21.836,0.001,32.754
	C111.592,199.973,111.592,200.366,111.592,200.852z"/>
<g>
	<path fill="#FFFFFF" d="M180.263,118.093c-1.708-0.001-1.71-0.001-1.71-1.749c-0.001-12.116-0.001-24.231-0.001-36.347
		c0-0.41,0-0.82,0-1.55c-2.034,1.163-3.882,2.016-5.492,3.192c-2.3,1.683-4.664,3.383-6.579,5.463
		c-4.523,4.916-6.323,10.962-6.398,17.558c-0.045,4.038-0.043,8.076,0.015,12.114c0.016,1.08-0.341,1.432-1.378,1.332
		c-0.777-0.073-1.566-0.014-2.222-0.014c0,2.79,0,5.412,0,8.067c1.111,0,2.077,0,3.096,0c0-1.008,0.02-1.925-0.007-2.842
		c-0.02-0.673,0.274-0.917,0.933-0.915c5.798,0.014,11.596,0.013,17.394,0.004c0.834-0.001,1.128,0.405,1.102,1.192
		c-0.029,0.861-0.006,1.724-0.006,2.605c1.193,0,2.219,0,3.323,0c0-2.756,0-5.379,0-8.112
		C181.602,118.093,180.933,118.093,180.263,118.093z M172.445,118.117c-2.195-0.08-4.396-0.049-6.593-0.01
		c-0.836,0.016-1.24-0.196-1.233-1.133c0.034-4.396-0.223-8.809,0.077-13.185c0.356-5.205,2.335-9.88,5.875-13.807
		c0.64-0.71,1.319-1.388,2.012-2.048c0.264-0.251,0.616-0.41,1.172-0.768c0,1.394,0,2.42,0,3.446
		c0.001,8.713-0.014,17.425,0.024,26.138C173.783,117.786,173.525,118.156,172.445,118.117z"/>
	<path fill="#FFFFFF" d="M369.353,118.093c-1.903-0.019-1.896-0.02-1.896-1.874c-0.006-11.634-0.017-23.268-0.023-34.902
		c0-0.376,0-0.752,0-1.176c-1.753,0-3.307,0-4.999,0c0,0.408-0.001,0.686,0,0.961c0.015,10.515,0.032,21.028,0.043,31.542
		c0.001,1.357-0.071,2.715-0.04,4.071c0.021,0.927-0.428,1.16-1.252,1.146c-1.919-0.029-3.838-0.008-5.757-0.01
		c-1.634-0.001-1.675-0.043-1.675-1.703c-0.002-11.555-0.002-23.108-0.002-34.663c0-0.462,0-0.924,0-1.299c-1.746,0-3.332,0-4.963,0
		c0,14.015,0,27.942,0,41.983c0.416,0,0.767,0,1.115,0c5.037,0,10.075,0.021,15.112-0.02c0.948-0.008,1.3,0.275,1.233,1.233
		c-0.07,1.016-0.017,2.04-0.017,3.055c1.444,0,2.708,0,4.009,0c0-2.796,0-5.529,0-8.348
		C369.898,118.093,369.625,118.095,369.353,118.093z"/>
	<path fill="#FFFFFF" d="M313.488,95.185c0-4.995,0-9.991,0-14.98c-1.812,0-3.421,0-5.01,0c0,14.041,0,27.971,0,41.906
		c1.667,0,3.25,0,4.948,0c0-0.443,0-0.834,0-1.225c0.002-5.397-0.021-10.795,0.037-16.191c0.007-0.688,0.313-1.453,0.701-2.04
		c0.85-1.287,1.824-2.493,2.771-3.715c1.382-1.782,2.784-3.55,4.178-5.323c0.145,0.029,0.286,0.06,0.43,0.09
		c0,9.467,0,18.933,0,28.367c1.832,0,3.445,0,5.008,0c0-14.38,0-28.66,0-43.142c-4.312,5.576-8.494,10.983-12.678,16.392
		C313.747,95.278,313.618,95.231,313.488,95.185z"/>
	<path fill="#FFFFFF" d="M285.82,95.156c-0.009-4.973-0.008-9.944-0.008-15.009c-1.833,0-3.364,0-4.961,0c0,14.09,0,28.024,0,41.941
		c1.638,0,3.178,0,4.741,0c0.029-0.474,0.076-0.87,0.076-1.265c-0.015-5.279-0.057-10.56-0.028-15.839
		c0.004-0.669,0.198-1.45,0.579-1.983c1.406-1.969,2.925-3.859,4.41-5.771c0.982-1.264,1.98-2.515,2.973-3.771
		c0.12,0.04,0.238,0.08,0.359,0.119c0,9.514,0,19.026,0,28.525c1.799,0,3.384,0,4.977,0c0-14.382,0-28.698,0-43.238
		c-4.354,5.635-8.562,11.084-12.761,16.52C285.941,95.237,285.82,95.198,285.82,95.156z"/>
	<path fill="#FFFFFF" d="M412.094,81.401c0.004,4.798-0.014,9.595,0.031,14.391c0.01,1.062-0.258,1.502-1.414,1.448
		c-1.994-0.095-3.998-0.072-5.994-0.008c-1.002,0.033-1.311-0.296-1.303-1.299c0.045-4.797,0.02-9.594,0.018-14.392
		c0-0.431,0-0.859,0-1.352c-1.695,0-3.275,0-4.906,0c0,14.062,0,27.99,0,41.896c1.691,0,3.27,0,4.908,0c0-0.602,0-1.116,0.002-1.631
		c0.006-5.876,0.043-11.752-0.01-17.628c-0.01-1.117,0.387-1.347,1.387-1.313c1.955,0.064,3.92,0.082,5.875-0.005
		c1.115-0.05,1.455,0.323,1.445,1.421c-0.045,6.036-0.033,12.072-0.035,18.108c0,0.347,0.053,0.693,0.078,1.036
		c1.688,0,3.295,0,4.879,0c0-14.041,0-27.982,0-41.85c-1.67,0-3.277,0-4.961,0C412.094,80.692,412.094,81.046,412.094,81.401z"/>
	<path fill="#FFFFFF" d="M271.708,86.401c0.881-2.042,1.74-4.093,2.701-6.354c-1.793,0-3.39-0.021-4.982,0.023
		c-0.221,0.007-0.534,0.292-0.633,0.522c-1.559,3.623-3.076,7.262-4.631,10.886c-0.582,1.358-1.238,2.687-1.859,4.028
		c-0.119-0.019-0.239-0.038-0.358-0.056c0-5.063,0-10.125,0-15.273c-1.835,0-3.444,0-5.079,0c0,13.951,0,27.927,0,41.905
		c1.688,0,3.299,0,5.084,0c0-5.85,0-11.611,0-17.374c0.146-0.013,0.295-0.023,0.44-0.034c2.092,5.83,4.185,11.661,6.269,17.469
		c1.822,0,3.539,0,5.387,0c-0.854-2.434-1.692-4.802-2.521-7.173c-1.726-4.944-3.459-9.886-5.147-14.842
		c-0.146-0.435-0.129-1.031,0.049-1.452C268.159,94.573,269.946,90.492,271.708,86.401z"/>
	<path fill="#FFFFFF" d="M465.874,92.234c-1.447-4.975-4.686-8.531-9.258-10.802c-2.119-1.052-4.436-1.708-6.773-2.586
		c0,14.676,0,28.971,0,43.263c1.672,0,3.256,0,4.951,0c0-2.089-0.051-4.119,0.037-6.146c0.021-0.486,0.393-1.101,0.793-1.397
		c0.984-0.728,2.109-1.259,3.123-1.949C465.362,108.109,468.081,99.828,465.874,92.234z M460.762,102.37
		c-1.01,2.887-2.994,5.088-5.725,7.064c-0.109-0.604-0.234-0.966-0.234-1.328c-0.012-6.836-0.014-13.672,0.002-20.508
		c0-0.369,0.172-0.736,0.266-1.104c0.375,0.16,0.809,0.248,1.119,0.49c3.299,2.582,5.473,5.905,5.697,10.121
		C461.981,98.841,461.354,100.681,460.762,102.37z"/>
	<path fill="#FFFFFF" d="M193.858,117.869c-1.04,0.02-1.41-0.359-1.401-1.399c0.037-4.478,0.044-8.957-0.003-13.434
		c-0.012-1.146,0.365-1.562,1.524-1.524c2.187,0.071,4.376,0.021,6.612,0.021c0-1.462,0-2.807,0-4.318
		c-2.274,0-4.469-0.062-6.658,0.023c-1.198,0.048-1.51-0.399-1.48-1.53c0.069-2.598,0.01-5.198,0.024-7.796
		c0.023-4.18-0.514-3.62,3.594-3.649c1.504-0.011,3.009-0.002,4.483-0.002c0-1.46,0-2.758,0-4.062c-4.386,0-8.688,0-13.053,0
		c0,14.007,0,27.937,0,41.898c4.712,0,9.363,0,14.001,0c0-1.451,0-2.823,0-4.241C198.891,117.853,196.374,117.82,193.858,117.869z"
		/>
	<path fill="#FFFFFF" d="M383.25,117.875c-1.088,0.031-1.461-0.261-1.443-1.403c0.064-4.357,0.025-8.717,0.025-13.075
		c0-1.865,0-1.865,1.824-1.867c2.102,0,4.204,0,6.318,0c0-1.492,0-2.811,0-4.317c-2.367,0-4.639-0.035-6.905,0.017
		c-0.924,0.021-1.271-0.25-1.255-1.22c0.051-3.198,0.018-6.397,0.018-9.596c0-2.154,0-2.155,2.221-2.157
		c1.945-0.001,3.892,0,5.875,0c0-1.431,0-2.729,0-4.087c-4.396,0-8.729,0-13.04,0c0,14.018,0,27.987,0,41.937
		c4.717,0,9.339,0,13.983,0c0-1.438,0-2.811,0-4.253C388.278,117.853,385.763,117.803,383.25,117.875z"/>
	<path fill="#FFFFFF" d="M424.405,84.262c1.557,0,3.064,0.003,4.57,0c2.045-0.005,2.057-0.007,2.059,2.073
		c0.002,11.429-0.002,22.858-0.004,34.288c0,0.5,0,1,0,1.459c1.764,0,3.34,0,5.012,0c0-0.804,0-1.517,0-2.229
		c-0.004-11.389,0.004-22.777-0.031-34.167c-0.004-1.115,0.385-1.481,1.471-1.438c1.66,0.066,3.326,0.018,5.029,0.018
		c0-1.411,0-2.677,0-4.091c-6.086,0-12.061,0-18.105,0C424.405,81.534,424.405,82.83,424.405,84.262z"/>
	<path fill="#FFFFFF" d="M207.16,84.259c1.704,0,3.338,0.068,4.964-0.022c1.169-0.064,1.496,0.338,1.492,1.493
		c-0.038,11.681-0.022,23.359-0.022,35.039c0,0.43,0,0.858,0,1.328c1.729,0,3.342,0,5.038,0c0-0.546,0-1.019,0-1.492
		c0.001-11.6,0.021-23.199-0.024-34.799c-0.005-1.25,0.427-1.61,1.59-1.563c1.618,0.063,3.241,0.016,4.858,0.016
		c0-1.481,0-2.788,0-4.079c-5.988,0-11.919,0-17.896,0C207.16,81.526,207.16,82.798,207.16,84.259z"/>
	<path fill="#FFFFFF" d="M230.657,103.584c0.761,9.748,8.621,17.747,16.775,19.299c0-1.22-0.053-2.34,0.02-3.453
		c0.049-0.777-0.201-1.223-0.889-1.603c-2.742-1.513-5.139-3.437-7.117-5.899c-4.312-5.366-5.011-12.56-2.055-18.448
		c2.088-4.159,5.385-7.104,9.418-9.311c0.341-0.187,0.79-0.565,0.811-0.879c0.088-1.379,0.039-2.768,0.039-4.187
		C238.458,81.727,229.63,90.437,230.657,103.584z"/>
	<path fill="#FFFFFF" d="M320.345,76.445c1.846-1.614,2.872-3.737,3.942-5.92c-0.629-0.336-1.177-0.628-1.861-0.993
		c-1.211,2.235-2.104,4.795-5.201,4.616c-2.76-0.158-3.676-2.395-4.654-4.615c-0.599,0.364-1.16,0.707-1.711,1.043
		c1.213,2.77,2.562,4.523,3.891,5.86C316.417,78.117,318.95,77.666,320.345,76.445z"/>
</g>
<g>
	<path fill="#FFFFFF" d="M433.885,170.577c0,0-0.316-2.018-0.422-2.567c-1.061-5.644-6.172-12.556-12.881-13.55
		c-0.875-0.129-4.475-0.204-5.436,0.04c-7.334,1.869-11.383,6.782-12.959,13.992c-0.07,0.321-0.277,2.085-0.277,2.085h2.83
		c0.574-4.193,2.418-7.597,5.844-10.165c-1.408,4.577-2.289,9.199-2.107,14.079c1.035,0,1.949,0.042,2.857-0.013
		c0.98-0.057,1.314,0.299,1.312,1.315c-0.023,6.877,0.014,13.755,0.029,20.632c0.002,0.5,0,1.001,0,1.488c1.115,0,2.168,0,3.25,0
		c0-7.018-0.016-13.937,0.006-20.854c0.01-2.919-0.43-2.495,2.65-2.588c1.121-0.034,1.432,0.377,1.426,1.463
		c-0.037,6.92-0.016,13.84-0.014,20.759c0,0.423,0,0.844,0,1.26c1.117,0,2.062,0,3.131,0c0-0.525,0-0.994,0-1.463
		c-0.002-6.881,0.018-13.76-0.023-20.64c-0.008-1.041,0.287-1.453,1.352-1.374c0.975,0.074,1.961,0.017,2.951,0.017
		c-0.01-4.915-0.594-9.562-2.16-14.128c0.959,0.601,1.781,1.229,2.387,2.025c1.84,2.421,3.148,5.11,3.477,8.186L433.885,170.577
		L433.885,170.577z"/>
	<ellipse fill="#FFFFFF" cx="417.883" cy="145.85" rx="6.77" ry="7.665"/>
</g>
<g>
	<path fill="#FFFFFF" d="M401.911,170.577c0,0-0.318-2.018-0.422-2.567c-1.061-5.644-6.173-12.556-12.882-13.55
		c-0.874-0.129-4.476-0.204-5.435,0.04c-7.336,1.869-11.383,6.782-12.959,13.992c-0.07,0.321-0.278,2.085-0.278,2.085h2.83
		c0.573-4.193,2.419-7.597,5.844-10.165c-1.407,4.577-2.289,9.199-2.106,14.079c1.035,0,1.949,0.042,2.857-0.013
		c0.98-0.057,1.314,0.299,1.312,1.315c-0.024,6.877,0.013,13.755,0.029,20.632c0.002,0.5,0,1.001,0,1.488c1.114,0,2.168,0,3.25,0
		c0-7.018-0.017-13.937,0.006-20.854c0.01-2.919-0.431-2.495,2.65-2.588c1.121-0.034,1.432,0.377,1.426,1.463
		c-0.037,6.92-0.017,13.84-0.015,20.759c0,0.423,0,0.844,0,1.26c1.116,0,2.063,0,3.131,0c0-0.525,0-0.994,0-1.463
		c-0.001-6.881,0.019-13.76-0.022-20.64c-0.008-1.041,0.287-1.453,1.351-1.374c0.976,0.074,1.961,0.017,2.952,0.017
		c-0.01-4.915-0.594-9.562-2.161-14.128c0.96,0.601,1.782,1.229,2.387,2.025c1.841,2.421,3.149,5.11,3.476,8.186L401.911,170.577
		L401.911,170.577z"/>
	<ellipse fill="#FFFFFF" cx="385.909" cy="145.85" rx="6.77" ry="7.665"/>
</g>
<g>
	<path fill="#FFFFFF" d="M369.935,170.577c0,0-0.317-2.018-0.422-2.567c-1.062-5.644-6.173-12.556-12.882-13.55
		c-0.875-0.129-4.475-0.204-5.436,0.04c-7.335,1.869-11.382,6.782-12.959,13.992c-0.07,0.321-0.277,2.085-0.277,2.085h2.83
		c0.573-4.193,2.418-7.597,5.844-10.165c-1.407,4.577-2.289,9.199-2.106,14.079c1.034,0,1.948,0.042,2.856-0.013
		c0.98-0.057,1.314,0.299,1.312,1.315c-0.023,6.877,0.014,13.755,0.029,20.632c0.002,0.5,0.001,1.001,0.001,1.488
		c1.114,0,2.167,0,3.249,0c0-7.018-0.016-13.937,0.007-20.854c0.009-2.919-0.431-2.495,2.649-2.588
		c1.121-0.034,1.433,0.377,1.427,1.463c-0.038,6.92-0.017,13.84-0.015,20.759c0,0.423,0,0.844,0,1.26c1.117,0,2.062,0,3.131,0
		c0-0.525,0-0.994,0-1.463c-0.002-6.881,0.018-13.76-0.023-20.64c-0.007-1.041,0.287-1.453,1.352-1.374
		c0.976,0.074,1.961,0.017,2.951,0.017c-0.009-4.915-0.594-9.562-2.16-14.128c0.959,0.601,1.781,1.229,2.387,2.025
		c1.84,2.421,3.148,5.11,3.476,8.186L369.935,170.577L369.935,170.577z"/>
	<ellipse fill="#FFFFFF" cx="353.932" cy="145.85" rx="6.77" ry="7.665"/>
</g>
<g>
	<path fill="#FFFFFF" d="M465.829,170.577c0,0-0.318-2.018-0.422-2.567c-1.061-5.644-6.172-12.556-12.881-13.55
		c-0.875-0.129-4.477-0.204-5.436,0.04c-7.336,1.869-11.383,6.782-12.959,13.992c-0.07,0.321-0.277,2.085-0.277,2.085h2.828
		c0.574-4.193,2.42-7.597,5.846-10.165c-1.408,4.577-2.289,9.199-2.107,14.079c1.035,0,1.949,0.042,2.857-0.013
		c0.98-0.057,1.314,0.299,1.312,1.315c-0.023,6.877,0.014,13.755,0.029,20.632c0.002,0.5,0,1.001,0,1.488c1.115,0,2.168,0,3.25,0
		c0-7.018-0.016-13.937,0.006-20.854c0.01-2.919-0.43-2.495,2.65-2.588c1.121-0.034,1.432,0.377,1.426,1.463
		c-0.037,6.92-0.018,13.84-0.016,20.759c0,0.423,0,0.844,0,1.26c1.117,0,2.064,0,3.133,0c0-0.525,0-0.994,0-1.463
		c-0.002-6.881,0.018-13.76-0.023-20.64c-0.008-1.041,0.287-1.453,1.352-1.374c0.975,0.074,1.961,0.017,2.951,0.017
		c-0.01-4.915-0.594-9.562-2.162-14.128c0.961,0.601,1.783,1.229,2.389,2.025c1.84,2.421,3.148,5.11,3.475,8.186L465.829,170.577
		L465.829,170.577z"/>
	<ellipse fill="#FFFFFF" cx="449.827" cy="145.85" rx="6.77" ry="7.665"/>
</g>
<g id="Layer_2">
</g>
</svg>
